<?xml version="1.0" encoding="UTF-8"?>
<svg version="1.1" xmlns="http://www.w3.org/2000/svg" width="500" height="500">
<path d="M0 0 C1.0828125 0.4021875 1.0828125 0.4021875 2.1875 0.8125 C0.94757992 6.98804423 -0.71733598 12.85814693 -2.81640625 18.79296875 C-3.09975327 19.60945389 -3.38310028 20.42593903 -3.67503357 21.26716614 C-4.57029794 23.8464525 -5.47184761 26.42346597 -6.375 29 C-7.56933648 32.40825949 -8.75723445 35.81866626 -9.94140625 39.23046875 C-10.21432999 40.00247116 -10.48725372 40.77447357 -10.76844788 41.56987 C-12.18107172 45.64111185 -13.2535407 49.51664449 -13.8125 53.8125 C-12.95785156 53.94527344 -12.10320312 54.07804687 -11.22265625 54.21484375 C-10.11792969 54.39144531 -9.01320312 54.56804687 -7.875 54.75 C-6.77285156 54.92402344 -5.67070312 55.09804687 -4.53515625 55.27734375 C-1.8125 55.8125 -1.8125 55.8125 -0.8125 56.8125 C-0.40234375 58.98046875 -0.40234375 58.98046875 -0.8125 61.8125 C-2.60379897 64.10971592 -4.33379225 66.07744934 -6.375 68.125 C-7.47880196 69.26993037 -8.58166957 70.41576228 -9.68359375 71.5625 C-10.48966064 72.39201172 -10.48966064 72.39201172 -11.31201172 73.23828125 C-13.83888446 75.88931859 -16.17163918 78.70101369 -18.5078125 81.51953125 C-19.8125 82.8125 -19.8125 82.8125 -21.8125 82.8125 C-22.05355469 83.37066406 -22.29460937 83.92882812 -22.54296875 84.50390625 C-24.08136579 87.30142209 -25.96811964 89.39736915 -28.125 91.75 C-29.33349609 93.07064453 -29.33349609 93.07064453 -30.56640625 94.41796875 C-32.9297354 96.93748313 -35.37003119 99.37003119 -37.8125 101.8125 C-38.71574391 102.91061285 -39.61145364 104.01496092 -40.5 105.125 C-41.263125 106.011875 -42.02625 106.89875 -42.8125 107.8125 C-43.4725 107.8125 -44.1325 107.8125 -44.8125 107.8125 C-44.8125 108.4725 -44.8125 109.1325 -44.8125 109.8125 C-45.4725 109.8125 -46.1325 109.8125 -46.8125 109.8125 C-46.8125 110.4725 -46.8125 111.1325 -46.8125 111.8125 C-47.4725 111.8125 -48.1325 111.8125 -48.8125 111.8125 C-48.8125 112.4725 -48.8125 113.1325 -48.8125 113.8125 C-49.4725 113.8125 -50.1325 113.8125 -50.8125 113.8125 C-51.4725 115.1325 -52.1325 116.4525 -52.8125 117.8125 C-53.4725 117.8125 -54.1325 117.8125 -54.8125 117.8125 C-54.8125 118.4725 -54.8125 119.1325 -54.8125 119.8125 C-55.4725 119.8125 -56.1325 119.8125 -56.8125 119.8125 C-57.080625 120.410625 -57.34875 121.00875 -57.625 121.625 C-58.83743496 123.85843283 -59.75902273 125.31188199 -61.8125 126.8125 C-64 126.5 -64 126.5 -65.8125 125.8125 C-64.30967488 119.95939166 -62.11336993 114.58968821 -59.6875 109.0625 C-58.87957468 107.20209797 -58.07229753 105.34141434 -57.265625 103.48046875 C-56.65364258 102.071604 -56.65364258 102.071604 -56.02929688 100.63427734 C-53.79481238 95.45246118 -51.62749601 90.24221569 -49.46435547 85.03027344 C-49.15900879 84.29969727 -48.85366211 83.56912109 -48.5390625 82.81640625 C-48.27689941 82.18549072 -48.01473633 81.5545752 -47.74462891 80.90454102 C-46.52409373 78.16520998 -45.1536667 75.4948334 -43.8125 72.8125 C-51.4025 72.8125 -58.9925 72.8125 -66.8125 72.8125 C-66.8125 67.09640852 -66.27336538 66.64372791 -62.5 62.75 C-59.14991971 59.27126252 -59.14991971 59.27126252 -56.14453125 55.50390625 C-55.70496094 54.94574219 -55.26539062 54.38757813 -54.8125 53.8125 C-54.1525 53.8125 -53.4925 53.8125 -52.8125 53.8125 C-52.5546875 53.24015625 -52.296875 52.6678125 -52.03125 52.078125 C-50.69884058 49.60121005 -49.16193882 47.6783834 -47.3125 45.5625 C-46.39984375 44.50289062 -46.39984375 44.50289062 -45.46875 43.421875 C-43.8125 41.8125 -43.8125 41.8125 -41.8125 41.8125 C-41.59851563 41.26851562 -41.38453125 40.72453125 -41.1640625 40.1640625 C-39.3390201 36.98869972 -36.81453113 34.69089663 -34.1875 32.1875 C-29.46643268 27.60424295 -25.27665176 22.86566565 -21.3359375 17.578125 C-20.83320312 16.99546875 -20.33046875 16.4128125 -19.8125 15.8125 C-19.1525 15.8125 -18.4925 15.8125 -17.8125 15.8125 C-17.8125 15.1525 -17.8125 14.4925 -17.8125 13.8125 C-17.1525 13.8125 -16.4925 13.8125 -15.8125 13.8125 C-15.8125 13.1525 -15.8125 12.4925 -15.8125 11.8125 C-14.23828125 10.26171875 -14.23828125 10.26171875 -12.125 8.5 C-9.60153749 6.38082461 -7.29186607 4.29189483 -5.125 1.8125 C-2.8125 -0.1875 -2.8125 -0.1875 0 0 Z " fill="#3683FC" transform="translate(136.8125,185.1875)"/>
<path d="M0 0 C-6.01618669 8.68270167 -10.72479058 13.81086584 -21.20703125 16.2109375 C-24.91822245 17.25941389 -27.95084769 19.00603502 -31.22265625 21.01171875 C-33 22 -33 22 -35 22 C-35 22.66 -35 23.32 -35 24 C-35.66 24 -36.32 24 -37 24 C-37 24.66 -37 25.32 -37 26 C-37.66 26 -38.32 26 -39 26 C-39.27714844 26.72058594 -39.55429688 27.44117188 -39.83984375 28.18359375 C-41.31643249 31.76817449 -43.09345158 35.15919904 -44.87890625 38.59765625 C-48.81227803 47.02631006 -47.33422469 55.60063262 -44.2890625 64.08984375 C-42.64432459 67.80296419 -40.58256522 70.99980047 -38.171875 74.2578125 C-37 76 -37 76 -37 78 C-36.34 78 -35.68 78 -35 78 C-33.88653212 80.80033839 -33.96489727 81.90143703 -34.99609375 84.796875 C-35.47175781 85.77140625 -35.94742188 86.7459375 -36.4375 87.75 C-36.91058594 88.73484375 -37.38367188 89.7196875 -37.87109375 90.734375 C-38.24363281 91.48203125 -38.61617187 92.2296875 -39 93 C-46.98407613 90.24161259 -52.18329655 83.78622173 -55.90625 76.390625 C-56.2671875 75.60171875 -56.628125 74.8128125 -57 74 C-57.3815625 73.19046875 -57.763125 72.3809375 -58.15625 71.546875 C-63.39655705 59.04499961 -63.53979904 43.55506564 -58.84375 30.87890625 C-53.23953543 18.65860504 -43.14339616 7.93013796 -31 2 C-28.43309346 1.06292765 -25.84564041 0.37677102 -23.1875 -0.25 C-22.48971436 -0.41838379 -21.79192871 -0.58676758 -21.07299805 -0.76025391 C-13.95111871 -2.38533653 -6.71915818 -3.58355103 0 0 Z " fill="#3A84F8" transform="translate(113,199)"/>
<path d="M0 0 C7.49357117 3.14828373 11.47688633 11.39924404 14.95703125 18.34765625 C17.58833771 25.03925582 18.36225588 31.18947714 18.3125 38.3125 C18.30512817 39.56426025 18.30512817 39.56426025 18.29760742 40.84130859 C18.02329571 55.32778042 12.77043045 65.31662901 3.18359375 75.93359375 C1.16989166 77.83922596 -0.45985412 78.94592586 -3 80 C-3 80.66 -3 81.32 -3 82 C-4.85014053 82.96608323 -6.70533473 83.9224907 -8.5625 84.875 C-9.59503906 85.40867187 -10.62757812 85.94234375 -11.69140625 86.4921875 C-18.7629988 89.71489674 -24.79824193 90.26799547 -32.4375 90.125 C-33.35982422 90.11597656 -34.28214844 90.10695313 -35.23242188 90.09765625 C-37.48855809 90.0742766 -39.74413684 90.04150916 -42 90 C-41.26459235 86.66615196 -40.30130525 84.57746188 -38 82 C-37.34 82 -36.68 82 -36 82 C-36 81.34 -36 80.68 -36 80 C-35.34 80 -34.68 80 -34 80 C-34 79.34 -34 78.68 -34 78 C-31.05484945 76.0365663 -29.25670545 75.47271081 -25.875 74.6875 C-21.10589142 73.44942678 -17.1869022 71.71214132 -12.97265625 69.18359375 C-11.0244594 68.01467564 -9.04305725 66.99181974 -7 66 C-7 65.34 -7 64.68 -7 64 C-6.34 64 -5.68 64 -5 64 C-4.7525 63.34 -4.505 62.68 -4.25 62 C-2.95477678 58.89146427 -1.46608036 55.94479466 0.09765625 52.96484375 C4.36470302 43.67339558 2.58294576 31.90795693 -0.83203125 22.68359375 C-1.9752299 19.89927261 -1.9752299 19.89927261 -3.74609375 17.0859375 C-5.38388275 13.05524184 -4.67571976 11.23784022 -3.25 7.1875 C-2.86328125 6.04667969 -2.4765625 4.90585938 -2.078125 3.73046875 C-1 1 -1 1 0 0 Z " fill="#3C82F8" transform="translate(136,211)"/>
<path d="M0 0 C24.97058824 0 24.97058824 0 31 5 C33.29000466 8.43500699 33.29748064 9.88728019 33.3125 13.9375 C33.32925781 14.97777344 33.34601563 16.01804688 33.36328125 17.08984375 C32.96272879 20.29857048 32.15199859 21.64358994 30 24 C30.825 24.763125 31.65 25.52625 32.5 26.3125 C35.66376753 30.09820473 35.66112726 33.6496503 35.4140625 38.44140625 C34.82965185 42.052623 33.82791067 43.67966304 31 46 C24 49 24 49 0 49 C0 32.83 0 16.66 0 0 Z M10 10 C10 13.63 10 17.26 10 21 C14.16021408 21.21153631 17.08997426 21.34125965 21 19.875 C23.3115315 18.09967933 23.3115315 18.09967933 23.4375 14.9375 C23.28056299 11.88374462 23.28056299 11.88374462 21 10 C18.33050591 9.75684344 18.33050591 9.75684344 15.375 9.875 C13.60125 9.91625 11.8275 9.9575 10 10 Z M10 29 C10 32.63 10 36.26 10 40 C11.7325 40.061875 13.465 40.12375 15.25 40.1875 C16.22453125 40.22230469 17.1990625 40.25710938 18.203125 40.29296875 C21.41124547 39.95692261 22.72155565 39.24642874 25 37 C25.49361113 34.17936498 25.50674289 32.73061218 23.859375 30.35546875 C21.16823075 28.3936472 19.09663549 28.70656015 15.8125 28.8125 C14.18248047 28.85310547 14.18248047 28.85310547 12.51953125 28.89453125 C11.68808594 28.92933594 10.85664063 28.96414062 10 29 Z " fill="#32268A" transform="translate(174,223)"/>
<path d="M0 0 C3.78273401 2.01312883 5.98873144 4.39403759 7.6953125 8.28125 C9.5693581 14.58485793 9.42389827 21.30434783 6.6953125 27.28125 C3.11798707 32.56507343 0.15230592 34.78985132 -6.0546875 36.03125 C-11.87081282 36.61502466 -16.92549873 35.62241918 -21.6171875 32.03125 C-25.98083119 27.56612623 -27.47706137 24.09822812 -27.7421875 17.90625 C-27.53968689 11.14088861 -25.64431023 6.50674479 -20.7421875 1.84375 C-14.9119899 -1.89355615 -6.54326939 -2.04061283 0 0 Z M-14.6171875 9.15625 C-17.28821824 12.51977019 -17.65283554 14.91525869 -17.58203125 19.2421875 C-17.13006195 22.56511673 -15.79481115 24.1187742 -13.3046875 26.28125 C-9.66283426 27.3217795 -7.91171602 27.48359284 -4.3046875 26.28125 C-4.3046875 25.62125 -4.3046875 24.96125 -4.3046875 24.28125 C-3.6446875 24.28125 -2.9846875 24.28125 -2.3046875 24.28125 C-0.66120657 19.3508072 -0.49203825 15.01736431 -2.6796875 10.34375 C-4.14390476 8.18422594 -4.14390476 8.18422594 -6.3046875 7.28125 C-10.02613139 6.87674523 -11.65638304 6.75559773 -14.6171875 9.15625 Z " fill="#34298C" transform="translate(336.3046875,236.71875)"/>
<path d="M0 0 C4.51765178 2.10304479 7.22042801 4.88211557 10 9 C11.70549013 14.30975928 12.11497384 20.84572167 10.24609375 26.1328125 C9.25 27.9375 9.25 27.9375 7 31 C6.2265625 32.1446875 6.2265625 32.1446875 5.4375 33.3125 C0.87900226 36.46838305 -4.83878854 37.25545143 -10.3203125 36.8125 C-14.76015645 35.86713399 -17.93751442 34.31769271 -21 31 C-24.79588599 24.69011739 -26.16341545 19.17287202 -24.52734375 11.8984375 C-22.88139796 6.63535337 -20.4800037 4.14553451 -16 1 C-11.35174477 -1.32412762 -5.05877924 -0.41484294 0 0 Z M-14 12 C-15.60577639 15.21155278 -15.47382856 18.516359 -15 22 C-13.05083741 25.52348621 -11.87663766 26.70157016 -8.0625 28 C-4.34843369 28 -2.84255511 27.36879593 0 25 C1.8656461 21.94712456 2.00170747 20.09561838 1.9375 16.5 C0.79942975 12.25120439 -0.46511327 10.59225027 -4 8 C-8.92090412 7.09616047 -10.93485938 8.14019329 -14 12 Z " fill="#392D8E" transform="translate(236,236)"/>
<path d="M0 0 C3.97837756 1.95885257 6.29035279 4.9395471 8.0078125 8.90234375 C9.71633794 15.32195115 9.83459851 21.91992746 6.98046875 27.9453125 C1.98643741 33.20929148 -2.03406499 35.80229246 -9.33203125 36.3828125 C-14.17035078 36.07649032 -17.40642228 35.12732406 -21.20703125 32.0703125 C-25.75390971 26.31984856 -27.80747853 21.48306519 -27.1171875 14.078125 C-26.13566526 8.52551345 -24.36353446 5.31832754 -20.33203125 1.3828125 C-14.75069098 -2.26700777 -6.2282251 -1.64834098 0 0 Z M-14.70703125 9.2578125 C-17.69832948 13.16951019 -17.70317518 16.58649097 -17.33203125 21.3828125 C-16.49358954 24.03787792 -15.82310327 25.00086759 -13.64453125 26.6953125 C-10.26041207 27.70140199 -7.73536351 27.18723649 -4.33203125 26.3828125 C-2.33203125 25.3828125 -2.33203125 25.3828125 -1.33203125 23.3828125 C-0.11360815 18.41539524 -0.21169516 15.04755189 -2.33203125 10.3828125 C-3.39548177 8.40251568 -3.39548177 8.40251568 -5.33203125 7.3828125 C-9.38763216 6.86664511 -11.44350795 6.68134673 -14.70703125 9.2578125 Z " fill="#33288B" transform="translate(405.33203125,236.6171875)"/>
<path d="M0 0 C2.97 0 5.94 0 9 0 C9.33 0.66 9.66 1.32 10 2 C10.99 1.34 11.98 0.68 13 0 C17.67607524 -0.64102042 22.75562026 -1.09276916 27.0859375 1.015625 C29.69099331 3.12508483 30.93843981 4.81531942 32 8 C32.0833804 10.13794525 32.10733747 12.27842009 32.09765625 14.41796875 C32.09443359 15.67158203 32.09121094 16.92519531 32.08789062 18.21679688 C32.07532227 20.18229492 32.07532227 20.18229492 32.0625 22.1875 C32.05748317 23.52278481 32.05292059 24.85807141 32.04882812 26.19335938 C32.03702695 29.46228473 32.02056297 32.73111991 32 36 C29.03 36 26.06 36 23 36 C22.98541748 35.2886792 22.97083496 34.5773584 22.95581055 33.84448242 C22.88138994 30.62493668 22.78471 27.40643482 22.6875 24.1875 C22.66494141 23.06794922 22.64238281 21.94839844 22.61914062 20.79492188 C22.5659668 19.18520508 22.5659668 19.18520508 22.51171875 17.54296875 C22.48553467 16.55321045 22.45935059 15.56345215 22.43237305 14.54370117 C21.93959315 11.64461946 21.36365194 10.70141727 19 9 C15.87585686 8.68758569 14.00174224 8.99941925 11 10 C9.85422931 12.98109845 9.81252172 16.03518052 9.68359375 19.203125 C9.64169922 20.1828125 9.59980469 21.1625 9.55664062 22.171875 C9.49766602 23.69554687 9.49766602 23.69554687 9.4375 25.25 C9.39431641 26.28125 9.35113281 27.3125 9.30664062 28.375 C9.20074318 30.9165387 9.09866557 33.45817196 9 36 C6.03 36 3.06 36 0 36 C0 24.12 0 12.24 0 0 Z " fill="#362A8C" transform="translate(274,236)"/>
<path d="M0 0 C2.46210589 1.76766576 3.98722254 3.09115799 5.4375 5.75 C5.4375 7.07 5.4375 8.39 5.4375 9.75 C4.00094146 9.83131463 2.5630517 9.88933559 1.125 9.9375 C0.32449219 9.97230469 -0.47601563 10.00710937 -1.30078125 10.04296875 C-4.09290367 9.68129486 -4.66594033 8.72901879 -6.5625 6.75 C-10.18785976 6.4996423 -10.18785976 6.4996423 -13.5625 6.75 C-13.5625 8.07 -13.5625 9.39 -13.5625 10.75 C-12.9334375 10.84796875 -12.304375 10.9459375 -11.65625 11.046875 C-5.95290082 12.04324323 -0.28307103 13.20957172 4.4375 16.75 C6.54437513 20.19260643 6.92143713 22.71719061 6.4375 26.75 C4.30119843 30.71741719 2.67498087 33.17359927 -1.5625 34.75 C-14.46217337 36.08659266 -14.46217337 36.08659266 -19.3125 32.9375 C-21.94858207 30.37464243 -23.51295867 28.81513853 -23.6875 25.0625 C-23.625625 23.9178125 -23.625625 23.9178125 -23.5625 22.75 C-22.10507537 22.66903197 -20.64637193 22.61082226 -19.1875 22.5625 C-18.37539063 22.52769531 -17.56328125 22.49289062 -16.7265625 22.45703125 C-16.01242187 22.55371094 -15.29828125 22.65039062 -14.5625 22.75 C-13.9025 23.74 -13.2425 24.73 -12.5625 25.75 C-8.47003225 26.87264974 -8.47003225 26.87264974 -4.5625 25.75 C-4.2325 24.76 -3.9025 23.77 -3.5625 22.75 C-4.35914063 22.56824219 -5.15578125 22.38648438 -5.9765625 22.19921875 C-20.17521676 18.83092486 -20.17521676 18.83092486 -23.5625 13.75 C-24.23049205 6.84741551 -24.23049205 6.84741551 -21.8125 2.875 C-15.80862657 -2.79532491 -7.53828729 -2.64501308 0 0 Z " fill="#372D8B" transform="translate(370.5625,237.25)"/>
<path d="M0 0 C0.99 0 1.98 0 3 0 C3.495 5.445 3.495 5.445 4 11 C5.98 10.67 7.96 10.34 10 10 C9.42380903 13.56764821 8.13030516 15.25159497 5.5625 17.75 C4.94503906 18.36359375 4.32757813 18.9771875 3.69140625 19.609375 C2 21 2 21 0 21 C0 21.66 0 22.32 0 23 C-1.85014053 23.96608323 -3.70533473 24.9224907 -5.5625 25.875 C-6.59503906 26.40867187 -7.62757812 26.94234375 -8.69140625 27.4921875 C-15.7629988 30.71489674 -21.79824193 31.26799547 -29.4375 31.125 C-30.35982422 31.11597656 -31.28214844 31.10695313 -32.23242188 31.09765625 C-34.48855809 31.0742766 -36.74413684 31.04150916 -39 31 C-38.26459235 27.66615196 -37.30130525 25.57746188 -35 23 C-34.34 23 -33.68 23 -33 23 C-33 22.34 -33 21.68 -33 21 C-32.34 21 -31.68 21 -31 21 C-31 20.34 -31 19.68 -31 19 C-28.05484945 17.0365663 -26.25670545 16.47271081 -22.875 15.6875 C-18.10589142 14.44942678 -14.1869022 12.71214132 -9.97265625 10.18359375 C-8.0244594 9.01467564 -6.04305725 7.99181974 -4 7 C-4 6.34 -4 5.68 -4 5 C-3.34 5 -2.68 5 -2 5 C-1.34 3.35 -0.68 1.7 0 0 Z " fill="#3A6DF7" transform="translate(133,270)"/>
<path d="M0 0 C0 2.64 0 5.28 0 8 C-2.31 8.33 -4.62 8.66 -7 9 C-7.66 10.65 -8.32 12.3 -9 14 C-6.36 14 -3.72 14 -1 14 C-1 16.64 -1 19.28 -1 22 C-3.64 22 -6.28 22 -9 22 C-9 30.91 -9 39.82 -9 49 C-11.97 49 -14.94 49 -18 49 C-18 40.09 -18 31.18 -18 22 C-19.65 22 -21.3 22 -23 22 C-23 19.03 -23 16.06 -23 13 C-20.525 13.495 -20.525 13.495 -18 14 C-18.04125 12.7625 -18.0825 11.525 -18.125 10.25 C-18.08484959 4.55867904 -18.08484959 4.55867904 -16 2 C-10.73186826 -1.43041137 -5.9635351 -1.98784503 0 0 Z " fill="#2B207D" transform="translate(438,223)"/>
<path d="M0 0 C2.97 0 5.94 0 9 0 C9 3.3 9 6.6 9 10 C11.97 10 14.94 10 18 10 C18 12.64 18 15.28 18 18 C15.03 18 12.06 18 9 18 C9 23.94 9 29.88 9 36 C11.64 36 14.28 36 17 36 C17.87890625 42.15234375 17.87890625 42.15234375 18 44 C16.20207025 45.79792975 13.61614796 45.25670277 11.1875 45.3125 C10.12917969 45.34988281 9.07085937 45.38726562 7.98046875 45.42578125 C4.33361833 44.90480262 3.2584367 43.83752304 1 41 C-0.2263757 38.54724859 -0.11415314 36.9494219 -0.09765625 34.2109375 C-0.09282227 32.79941406 -0.09282227 32.79941406 -0.08789062 31.359375 C-0.07951172 30.37453125 -0.07113281 29.3896875 -0.0625 28.375 C-0.05798828 27.38242188 -0.05347656 26.38984375 -0.04882812 25.3671875 C-0.03702145 22.9113984 -0.020554 20.45572896 0 18 C-1.65 18 -3.3 18 -5 18 C-5 15.36 -5 12.72 -5 10 C-3.35 10 -1.7 10 0 10 C0 6.7 0 3.4 0 0 Z " fill="#2D2287" transform="translate(444,227)"/>
<path d="M0 0 C3.3 0 6.6 0 10 0 C10 0.66 10 1.32 10 2 C10.515625 1.67 11.03125 1.34 11.5625 1 C14.80521778 -0.33034575 17.52984772 -0.19642371 21 0 C22 1 22 1 22.09765625 2.84765625 C22.06510417 4.8984375 22.03255208 6.94921875 22 9 C21.06027344 9.14695313 21.06027344 9.14695313 20.1015625 9.296875 C19.28429687 9.44640625 18.46703125 9.5959375 17.625 9.75 C16.40683594 9.95882812 16.40683594 9.95882812 15.1640625 10.171875 C12.88634934 10.79728809 12.88634934 10.79728809 11.890625 12.74023438 C10.89191507 15.2742418 10.68536692 17.26663743 10.5859375 19.984375 C10.52792969 21.38623047 10.52792969 21.38623047 10.46875 22.81640625 C10.42234375 24.26853516 10.42234375 24.26853516 10.375 25.75 C10.31699219 27.22533203 10.31699219 27.22533203 10.2578125 28.73046875 C10.1637203 31.15334289 10.08077848 33.57664545 10 36 C6.7 36 3.4 36 0 36 C0 24.12 0 12.24 0 0 Z " fill="#2E2385" transform="translate(250,236)"/>
<path d="M0 0 C4.41070939 2.20535469 7.24755746 4.92230735 10 9 C11.70856557 14.31933415 12.13316155 20.88661059 10.2109375 26.16796875 C8.59051928 29.06864106 6.76685393 32.11853933 4 34 C1.3125 34.1875 1.3125 34.1875 -1 34 C-2.26772989 31.9119743 -3.05965732 30.59657324 -2.8125 28.125 C-2 26 -2 26 -0.375 23.1875 C1.3391806 19.21371769 1.1503673 17.14132229 0 13 C-1.73528589 10.36236545 -2.94146717 9.23882768 -6.04296875 8.5390625 C-8.01987551 8.2801402 -10.0106253 8.13262498 -12 8 C-12.93423645 4.98968256 -13.04449911 4.13349732 -12 1 C-8.28795513 -0.85602244 -4.0512695 -0.44875601 0 0 Z " fill="#362B8E" transform="translate(236,236)"/>
<path d="M0 0 C1.32 0.33 2.64 0.66 4 1 C3.01 1 2.02 1 1 1 C1 16.51 1 32.02 1 48 C8.59 47.67 16.18 47.34 24 47 C24 46.34 24 45.68 24 45 C23.34 45 22.68 45 22 45 C22.33 43.35 22.66 41.7 23 40 C22.34 39.67 21.68 39.34 21 39 C21.99 38.34 22.98 37.68 24 37 C24.41666667 34.5 24.41666667 34.5 24 32 C21.31907309 29.31907309 19.60832637 29.61329743 15.875 29.375 C14.77929688 29.30023438 13.68359375 29.22546875 12.5546875 29.1484375 C11.71164063 29.09945312 10.86859375 29.05046875 10 29 C10 32.63 10 36.26 10 40 C9.67 40 9.34 40 9 40 C9 36.04 9 32.08 9 28 C18.9 27.505 18.9 27.505 29 27 C28.01 26.01 27.02 25.02 26 24 C26.99 23.67 27.98 23.34 29 23 C29 23.66 29 24.32 29 25 C29.61875 25.268125 30.2375 25.53625 30.875 25.8125 C33 27 33 27 35 30 C35.66315196 34.98135074 35.78068389 39.50108693 33.4375 44 C23.23976864 52.36736932 13.84118413 49 0 49 C0 32.83 0 16.66 0 0 Z " fill="#554CA0" transform="translate(174,223)"/>
<path d="M0 0 C0.66 0.33 1.32 0.66 2 1 C3.26229508 5.47540984 3.26229508 5.47540984 2 8 C0.00773831 8.28919928 -1.98722182 8.57264551 -3.9921875 8.75390625 C-6.20329268 8.9575063 -6.20329268 8.9575063 -9 10 C-9.66 14.62 -10.32 19.24 -11 24 C-12.32 24.33 -13.64 24.66 -15 25 C-15 25.66 -15 26.32 -15 27 C-15.99 26.67 -16.98 26.34 -18 26 C-18.44638199 23.46044839 -18.85732364 20.92293409 -19.25 18.375 C-19.37890625 17.66214844 -19.5078125 16.94929688 -19.640625 16.21484375 C-20.24223237 12.11639355 -20.2227667 10.42866466 -18.24609375 6.625 C-13.01961127 0.51683265 -7.78089291 -0.96666898 0 0 Z " fill="#34288E" transform="translate(330,236)"/>
<path d="M0 0 C2.475 0.99 2.475 0.99 5 2 C5.33 7.61 5.66 13.22 6 19 C8.64 19 11.28 19 14 19 C14.87890625 25.15234375 14.87890625 25.15234375 15 27 C13.20207025 28.79792975 10.61614796 28.25670277 8.1875 28.3125 C6.60001953 28.36857422 6.60001953 28.36857422 4.98046875 28.42578125 C1.33361833 27.90480262 0.2584367 26.83752304 -2 24 C-3.17426264 21.65147472 -3.11508173 20.26225935 -3.09765625 17.6484375 C-3.09443359 16.79765625 -3.09121094 15.946875 -3.08789062 15.0703125 C-3.07951172 14.18085938 -3.07113281 13.29140625 -3.0625 12.375 C-3.05798828 11.4778125 -3.05347656 10.580625 -3.04882812 9.65625 C-3.03702591 7.43743352 -3.02056155 5.21874982 -3 3 C-2.01 2.67 -1.02 2.34 0 2 C0 1.34 0 0.68 0 0 Z " fill="#30248A" transform="translate(447,244)"/>
<path d="M0 0 C0.61875 0.680625 0.61875 0.680625 1.25 1.375 C2.92669589 3.09686822 2.92669589 3.09686822 5.125 4 C7 5 7 5 8 8 C8.66 8 9.32 8 10 8 C11.11346788 10.80033839 11.03510273 11.90143703 10.00390625 14.796875 C9.52824219 15.77140625 9.05257812 16.7459375 8.5625 17.75 C8.08941406 18.73484375 7.61632812 19.7196875 7.12890625 20.734375 C6.75636719 21.48203125 6.38382813 22.2296875 6 23 C2.35977688 21.73000852 -0.08334808 20.34820605 -2.8125 17.625 C-3.41707031 17.03976562 -4.02164063 16.45453125 -4.64453125 15.8515625 C-6 14 -6 14 -6 10 C-6.66 9.67 -7.32 9.34 -8 9 C-8.625 6.9375 -8.625 6.9375 -9 5 C-8.443125 4.731875 -7.88625 4.46375 -7.3125 4.1875 C-4.80287477 2.89877353 -2.40665764 1.47073522 0 0 Z " fill="#3868F7" transform="translate(68,269)"/>
<path d="M0 0 C-4.21659924 4.80252867 -8.48022862 9.48022862 -13 14 C-13.90352188 15.09788415 -14.79926769 16.20220961 -15.6875 17.3125 C-16.450625 18.199375 -17.21375 19.08625 -18 20 C-18.66 20 -19.32 20 -20 20 C-20 20.66 -20 21.32 -20 22 C-20.66 22 -21.32 22 -22 22 C-22 22.66 -22 23.32 -22 24 C-22.66 24 -23.32 24 -24 24 C-24 24.66 -24 25.32 -24 26 C-24.66 26 -25.32 26 -26 26 C-26.66 27.32 -27.32 28.64 -28 30 C-28.66 30 -29.32 30 -30 30 C-30 30.66 -30 31.32 -30 32 C-30.66 32 -31.32 32 -32 32 C-32.268125 32.598125 -32.53625 33.19625 -32.8125 33.8125 C-34.02493496 36.04593283 -34.94652273 37.49938199 -37 39 C-39.1875 38.6875 -39.1875 38.6875 -41 38 C-39.41814968 31.73343911 -36.96159917 25.97530405 -34.375 20.0625 C-33.95476562 19.09248047 -33.53453125 18.12246094 -33.1015625 17.12304688 C-32.07155044 14.74699632 -31.0376145 12.37273802 -30 10 C-28 12 -28 12 -27.875 14.625 C-27.91625 15.40875 -27.9575 16.1925 -28 17 C-28.66 17 -29.32 17 -30 17 C-30 17.66 -30 18.32 -30 19 C-27.36 19 -24.72 19 -22 19 C-21.731875 18.360625 -21.46375 17.72125 -21.1875 17.0625 C-20 15 -20 15 -17 14 C-16.54625 13.01 -16.0925 12.02 -15.625 11 C-14 8 -14 8 -11.3125 7.125 C-10.1678125 7.063125 -10.1678125 7.063125 -9 7 C-8.67 6.01 -8.34 5.02 -8 4 C-7.34 4 -6.68 4 -6 4 C-6 2.68 -6 1.36 -6 0 C-3 -1 -3 -1 0 0 Z M-32 21 C-34.2773501 23.81509993 -34.2773501 23.81509993 -34 27 C-34.66 27 -35.32 27 -36 27 C-36.33 29.31 -36.66 31.62 -37 34 C-36.01 33.67 -35.02 33.34 -34 33 C-34 32.01 -34 31.02 -34 30 C-32.8553125 29.5978125 -32.8553125 29.5978125 -31.6875 29.1875 C-29.09516021 28.04204753 -27.69924463 27.23584819 -26 25 C-26 24.01 -26 23.02 -26 22 C-28.97 21.505 -28.97 21.505 -32 21 Z " fill="#486DE4" transform="translate(112,273)"/>
<path d="M0 0 C0 2.64 0 5.28 0 8 C-1.6396875 8.2165625 -1.6396875 8.2165625 -3.3125 8.4375 C-6.93122987 8.88288104 -6.93122987 8.88288104 -10 10 C-10.33 11.65 -10.66 13.3 -11 15 C-12.32 15 -13.64 15 -15 15 C-15.33 15.66 -15.66 16.32 -16 17 C-18.31 16.34 -20.62 15.68 -23 15 C-23 14.34 -23 13.68 -23 13 C-20.525 13.495 -20.525 13.495 -18 14 C-18.04125 12.7625 -18.0825 11.525 -18.125 10.25 C-18.08484959 4.55867904 -18.08484959 4.55867904 -16 2 C-10.73186826 -1.43041137 -5.9635351 -1.98784503 0 0 Z " fill="#3D3390" transform="translate(438,223)"/>
<path d="M0 0 C3.3 0 6.6 0 10 0 C10 0.66 10 1.32 10 2 C10.515625 1.67 11.03125 1.34 11.5625 1 C14.80521778 -0.33034575 17.52984772 -0.19642371 21 0 C22 1 22 1 22.09765625 2.84765625 C22.06510417 4.8984375 22.03255208 6.94921875 22 9 C21.06027344 9.14695313 21.06027344 9.14695313 20.1015625 9.296875 C19.28429687 9.44640625 18.46703125 9.5959375 17.625 9.75 C16.40683594 9.95882812 16.40683594 9.95882812 15.1640625 10.171875 C12.88634934 10.79728809 12.88634934 10.79728809 11.890625 12.74023438 C10.89191507 15.2742418 10.68536692 17.26663743 10.5859375 19.984375 C10.52792969 21.38623047 10.52792969 21.38623047 10.46875 22.81640625 C10.42234375 24.26853516 10.42234375 24.26853516 10.375 25.75 C10.31699219 27.22533203 10.31699219 27.22533203 10.2578125 28.73046875 C10.1637203 31.15334289 10.08077848 33.57664545 10 36 C6.7 36 3.4 36 0 36 C0 24.12 0 12.24 0 0 Z M1 1 C1 12.22 1 23.44 1 35 C3.64 35 6.28 35 9 35 C9.33 26.75 9.66 18.5 10 10 C9.34 10 8.68 10 8 10 C8.3125 8.0625 8.3125 8.0625 9 6 C9.99 5.67 10.98 5.34 12 5 C11.01 4.67 10.02 4.34 9 4 C9 3.01 9 2.02 9 1 C6.36 1 3.72 1 1 1 Z " fill="#7169AC" transform="translate(250,236)"/>
<path d="M0 0 C0.99 0 1.98 0 3 0 C2.814375 0.969375 2.62875 1.93875 2.4375 2.9375 C2.293125 3.948125 2.14875 4.95875 2 6 C2.33 6.33 2.66 6.66 3 7 C3.06284005 8.68505122 3.05937577 10.37267547 3.02734375 12.05859375 C3.01509766 13.08404297 3.00285156 14.10949219 2.99023438 15.16601562 C2.95514 17.34316654 2.91609138 19.52025738 2.87304688 21.69726562 C2.86208984 22.72400391 2.85113281 23.75074219 2.83984375 24.80859375 C2.82300537 25.75532959 2.80616699 26.70206543 2.78881836 27.67749023 C2.76784828 30.19462817 2.76784828 30.19462817 5 32 C2.03 32 -0.94 32 -4 32 C-4 23.09 -4 14.18 -4 5 C-5.65 5 -7.3 5 -9 5 C-9 4.67 -9 4.34 -9 4 C-6.125 3.8125 -6.125 3.8125 -3 4 C-2.01 5.485 -2.01 5.485 -1 7 C-0.67 4.69 -0.34 2.38 0 0 Z " fill="#372D8F" transform="translate(424,240)"/>
<path d="M0 0 C4.61785447 0.6596935 8.21530013 1.74594724 11.203125 5.51953125 C14.88408848 11.67607229 14.38243166 18.03124528 14 25 C13.67 24.01 13.34 23.02 13 22 C12.34 22 11.68 22 11 22 C10.67 22.66 10.34 23.32 10 24 C9.67 23.01 9.34 22.02 9 21 C8.01 21.33 7.02 21.66 6 22 C6 20.02 6 18.04 6 16 C5.34 16.33 4.68 16.66 4 17 C3.34 14.69 2.68 12.38 2 10 C2.66 10 3.32 10 4 10 C4 9.01 4 8.02 4 7 C4.66 7 5.32 7 6 7 C5.67 6.01 5.34 5.02 5 4 C4.34 3.67 3.68 3.34 3 3 C2.67 3.66 2.34 4.32 2 5 C1.67 4.34 1.34 3.68 1 3 C1.33 2.34 1.66 1.68 2 1 C1.34 0.67 0.68 0.34 0 0 Z " fill="#392D92" transform="translate(400,236)"/>
<path d="M0 0 C2.28647811 3.24920574 2.46672791 6.11060074 2 10 C0.01739304 13.96521393 -1.13305009 15.6332135 -5.25 17.375 C-6.1575 17.58125 -7.065 17.7875 -8 18 C-8 16.35 -8 14.7 -8 13 C-8.99 13.33 -9.98 13.66 -11 14 C-11 12.68 -11 11.36 -11 10 C-10.34 9.67 -9.68 9.34 -9 9 C-8.67 8.01 -8.34 7.02 -8 6 C-8.66 5.67 -9.32 5.34 -10 5 C-9.01 4.34 -8.02 3.68 -7 3 C-6.67 2.01 -6.34 1.02 -6 0 C-3 -1 -3 -1 0 0 Z " fill="#413792" transform="translate(375,254)"/>
<path d="M0 0 C0.721875 0.268125 1.44375 0.53625 2.1875 0.8125 C1.09051833 6.50389902 -0.35303077 11.55817937 -2.8125 16.8125 C-3.8025 16.1525 -4.7925 15.4925 -5.8125 14.8125 C-5.4825 13.4925 -5.1525 12.1725 -4.8125 10.8125 C-6.1325 10.8125 -7.4525 10.8125 -8.8125 10.8125 C-9.8025 10.8125 -10.7925 10.8125 -11.8125 10.8125 C-12.080625 11.410625 -12.34875 12.00875 -12.625 12.625 C-13.82237475 14.83069033 -14.85728984 16.24833187 -16.8125 17.8125 C-17.8025 17.8125 -18.7925 17.8125 -19.8125 17.8125 C-19.8125 17.1525 -19.8125 16.4925 -19.8125 15.8125 C-19.1525 15.8125 -18.4925 15.8125 -17.8125 15.8125 C-17.8125 15.1525 -17.8125 14.4925 -17.8125 13.8125 C-17.1525 13.8125 -16.4925 13.8125 -15.8125 13.8125 C-15.8125 13.1525 -15.8125 12.4925 -15.8125 11.8125 C-14.23828125 10.26171875 -14.23828125 10.26171875 -12.125 8.5 C-9.60153749 6.38082461 -7.29186607 4.29189483 -5.125 1.8125 C-2.8125 -0.1875 -2.8125 -0.1875 0 0 Z " fill="#4296F3" transform="translate(136.8125,185.1875)"/>
<path d="M0 0 C0.66 0.66 1.32 1.32 2 2 C2.33 1.34 2.66 0.68 3 0 C7.95 0 12.9 0 18 0 C18 0.33 18 0.66 18 1 C14.7 1 11.4 1 8 1 C8 4.63 8 8.26 8 12 C11.3 11.67 14.6 11.34 18 11 C17.67 11.66 17.34 12.32 17 13 C14.71484375 13.4140625 14.71484375 13.4140625 11.9375 13.625 C11.01839844 13.69976562 10.09929687 13.77453125 9.15234375 13.8515625 C8.44207031 13.90054688 7.73179687 13.94953125 7 14 C6.67 14.99 6.34 15.98 6 17 C4.68 17 3.36 17 2 17 C1.34 17.66 0.68 18.32 0 19 C0 12.73 0 6.46 0 0 Z " fill="#453A97" transform="translate(176,232)"/>
<path d="M0 0 C2.375 2.3125 2.375 2.3125 4 5 C4 6.32 4 7.64 4 9 C2.56344146 9.08131463 1.1255517 9.13933559 -0.3125 9.1875 C-1.51326172 9.23970703 -1.51326172 9.23970703 -2.73828125 9.29296875 C-5.52714579 8.93171687 -6.1436833 8.02132263 -8 6 C-11.10839021 5.2730774 -11.10839021 5.2730774 -14 5 C-13.67 3.68 -13.34 2.36 -13 1 C-8.28597713 -0.60276778 -4.80978793 -1.60326264 0 0 Z " fill="#3E3392" transform="translate(372,238)"/>
<path d="M0 0 C1.051875 0.2475 1.051875 0.2475 2.125 0.5 C5.13888194 1.02415338 7.94713625 1.07099683 11 1 C11.87890625 7.15234375 11.87890625 7.15234375 12 9 C10.20207025 10.79792975 7.61614796 10.25670277 5.1875 10.3125 C4.12917969 10.34988281 3.07085937 10.38726562 1.98046875 10.42578125 C-1.62984338 9.91002237 -2.73784711 8.77702546 -5 6 C-4.360625 5.566875 -3.72125 5.13375 -3.0625 4.6875 C-0.73253997 3.08760823 -0.73253997 3.08760823 0 0 Z " fill="#352B8F" transform="translate(450,262)"/>
<path d="M0 0 C3.32186116 0.83046529 5.67584694 1.74408969 8.375 3.875 C10.90580163 8.7419262 10.30887812 13.62037283 10 19 C8 18 8 18 7 15 C5.68 15.33 4.36 15.66 3 16 C3.33 14.68 3.66 13.36 4 12 C3.34 12 2.68 12 2 12 C1.34 13.32 0.68 14.64 0 16 C-0.66 13.69 -1.32 11.38 -2 9 C-1.01 9 -0.02 9 1 9 C0.67 6.03 0.34 3.06 0 0 Z " fill="#483D9B" transform="translate(197,224)"/>
<path d="M0 0 C0.33 0 0.66 0 1 0 C1.12117188 0.99902344 1.24234375 1.99804688 1.3671875 3.02734375 C1.53476562 4.31769531 1.70234375 5.60804688 1.875 6.9375 C2.03742188 8.22527344 2.19984375 9.51304687 2.3671875 10.83984375 C2.57601563 11.88269531 2.78484375 12.92554688 3 14 C3.66 14.33 4.32 14.66 5 15 C5 14.34 5 13.68 5 13 C5.66 13 6.32 13 7 13 C7.33 12.34 7.66 11.68 8 11 C8.66 10.67 9.32 10.34 10 10 C10.99 11.65 11.98 13.3 13 15 C12.01 15 11.02 15 10 15 C10.99 17.97 11.98 20.94 13 24 C8.22262231 23.57846667 5.22012919 21.39594084 2 18 C-1.73389134 12.77255212 -1.54930729 7.20083421 -1 1 C-0.67 0.67 -0.34 0.34 0 0 Z " fill="#3A3091" transform="translate(310,248)"/>
<path d="M0 0 C0.99 0.33 1.98 0.66 3 1 C3 1.99 3 2.98 3 4 C4.32 3.67 5.64 3.34 7 3 C7.6875 5.8125 7.6875 5.8125 8 9 C6.49284711 11.08130637 5.28773563 11.85613218 3 13 C4.32 13.99 5.64 14.98 7 16 C3.04 16 -0.92 16 -5 16 C-4.67 14.35 -4.34 12.7 -4 11 C-3.34 11 -2.68 11 -2 11 C-2.20625 10.38125 -2.4125 9.7625 -2.625 9.125 C-2.810625 8.073125 -2.810625 8.073125 -3 7 C-2.34 6.34 -1.68 5.68 -1 5 C-0.35232207 2.42938689 -0.35232207 2.42938689 0 0 Z " fill="#332790" transform="translate(198,235)"/>
<path d="M0 0 C1.32 0.33 2.64 0.66 4 1 C4.34765625 3.10546875 4.34765625 3.10546875 4 6 C2.20874491 8.29715965 0.47835065 10.26470151 -1.5625 12.3125 C-2.66353157 13.45759235 -3.76379415 14.60342461 -4.86328125 15.75 C-5.40033691 16.30300781 -5.93739258 16.85601562 -6.49072266 17.42578125 C-9.44743908 20.5097197 -12.21874858 23.75847105 -15 27 C-15.99 26.01 -16.98 25.02 -18 24 C-17.34 23.34 -16.68 22.68 -16 22 C-16.66 21.01 -17.32 20.02 -18 19 C-15 17 -15 17 -12.875 16.5 C-11.946875 16.2525 -11.946875 16.2525 -11 16 C-10.67 15.34 -10.34 14.68 -10 14 C-8.125 13.4375 -8.125 13.4375 -6 13 C-5.01 12.67 -4.02 12.34 -3 12 C-3 11.34 -3 10.68 -3 10 C-2.34 10 -1.68 10 -1 10 C-1.33 8.35 -1.66 6.7 -2 5 C-0.68 4.34 0.64 3.68 2 3 C2 2.34 2 1.68 2 1 C1.34 0.67 0.68 0.34 0 0 Z " fill="#417EF5" transform="translate(132,241)"/>
<path d="M0 0 C2.97 0 5.94 0 9 0 C9 0.66 9 1.32 9 2 C8.01 2.495 8.01 2.495 7 3 C7 3.99 7 4.98 7 6 C6.34 6 5.68 6 5 6 C5 6.66 5 7.32 5 8 C6.98 8 8.96 8 11 8 C11 8.33 11 8.66 11 9 C4.37979213 10.40855487 -1.62172121 9.97752905 -7.5625 6.5 C-9 5 -9 5 -9 3 C-6.525 3.99 -6.525 3.99 -4 5 C-4 4.01 -4 3.02 -4 2 C-2.68 1.67 -1.36 1.34 0 1 C0 0.67 0 0.34 0 0 Z " fill="#403691" transform="translate(392,263)"/>
<path d="M0 0 C4.37905014 0.50919188 7.46115497 1.32195512 11 4 C12.875 6.4375 12.875 6.4375 14 9 C13.6875 11.3125 13.6875 11.3125 13 13 C11.33333333 13 9.66666667 13 8 13 C8 12.01 8 11.02 8 10 C7.05125 10.04125 6.1025 10.0825 5.125 10.125 C2 10 2 10 0 8 C0.66 7.01 1.32 6.02 2 5 C2 3.68 2 2.36 2 1 C1.34 0.67 0.68 0.34 0 0 Z " fill="#3D3493" transform="translate(330,236)"/>
<path d="M0 0 C0 0.66 0 1.32 0 2 C-2.90567134 4.01782732 -5.51669784 5.35494404 -9 6 C-9 6.66 -9 7.32 -9 8 C-9.66 8 -10.32 8 -11 8 C-10.67 8.99 -10.34 9.98 -10 11 C-4.72 11 0.56 11 6 11 C5.01 12.485 5.01 12.485 4 14 C1.93701172 14.34057617 1.93701172 14.34057617 -0.5703125 14.29296875 C-1.46621094 14.28330078 -2.36210938 14.27363281 -3.28515625 14.26367188 C-4.69087891 14.2259668 -4.69087891 14.2259668 -6.125 14.1875 C-7.54232422 14.16719727 -7.54232422 14.16719727 -8.98828125 14.14648438 C-11.32608779 14.11106306 -13.66276237 14.06167271 -16 14 C-15.26459235 10.66615196 -14.30130525 8.57746188 -12 6 C-11.34 6 -10.68 6 -10 6 C-10 5.34 -10 4.68 -10 4 C-9.34 4 -8.68 4 -8 4 C-8 3.34 -8 2.68 -8 2 C-4.77208445 -0.1519437 -3.71599191 -0.20086443 0 0 Z " fill="#5778DC" transform="translate(110,287)"/>
<path d="M0 0 C0.66 0.33 1.32 0.66 2 1 C3.26229508 5.47540984 3.26229508 5.47540984 2 8 C-0.43359375 8.484375 -0.43359375 8.484375 -3.4375 8.75 C-4.92056641 8.89695313 -4.92056641 8.89695313 -6.43359375 9.046875 C-9 9 -9 9 -11 7 C-8.89359794 0.84282475 -6.43600718 -0.41080897 0 0 Z " fill="#2E2286" transform="translate(330,236)"/>
<path d="M0 0 C-3.27530896 4.63720719 -6.30435607 8.68542782 -11 12 C-10.67 10.35 -10.34 8.7 -10 7 C-8.68 6.67 -7.36 6.34 -6 6 C-6.495 5.54625 -6.99 5.0925 -7.5 4.625 C-9 3 -9 3 -9 1 C-14.1860069 0.80792332 -14.1860069 0.80792332 -19.25 1.625 C-21.68868966 2.14757636 -22.8625619 1.15704294 -25 0 C-7.72058824 -4.11764706 -7.72058824 -4.11764706 0 0 Z " fill="#71ABE5" transform="translate(113,199)"/>
<path d="M0 0 C0.33 0 0.66 0 1 0 C1.08636719 1.01578125 1.17273438 2.0315625 1.26171875 3.078125 C2.22829758 12.98042947 4.5192188 21.0384376 9 30 C8.01 30.33 7.02 30.66 6 31 C5.34 30.01 4.68 29.02 4 28 C1.94074861 27.27617533 1.94074861 27.27617533 0 27 C0.27650391 26.14921875 0.27650391 26.14921875 0.55859375 25.28125 C1.0675998 22.65063464 0.72150701 21.08434123 0.0625 18.5 C-1.22025959 12.68424537 -1.42061428 6.93750856 -1 1 C-0.67 0.67 -0.34 0.34 0 0 Z " fill="#4474E3" transform="translate(64,242)"/>
<path d="M0 0 C-4.21659924 4.80252867 -8.48022862 9.48022862 -13 14 C-13.90352188 15.09788415 -14.79926769 16.20220961 -15.6875 17.3125 C-16.8321875 18.6428125 -16.8321875 18.6428125 -18 20 C-18.66 20 -19.32 20 -20 20 C-20 20.66 -20 21.32 -20 22 C-20.66 22 -21.32 22 -22 22 C-22.3125 19.6875 -22.3125 19.6875 -22 17 C-20.34928604 15.97388051 -18.68029994 14.97691857 -17 14 C-16.505 12.96875 -16.01 11.9375 -15.5 10.875 C-14 8 -14 8 -11.3125 7.125 C-10.549375 7.08375 -9.78625 7.0425 -9 7 C-8.67 6.01 -8.34 5.02 -8 4 C-7.34 4 -6.68 4 -6 4 C-6 2.68 -6 1.36 -6 0 C-3 -1 -3 -1 0 0 Z " fill="#5E7FEA" transform="translate(112,273)"/>
<path d="M0 0 C0.33 0 0.66 0 1 0 C1 2.64 1 5.28 1 8 C-1.97 8 -4.94 8 -8 8 C-8 13.28 -8 18.56 -8 24 C-8.33 24 -8.66 24 -9 24 C-9.33 19.05 -9.66 14.1 -10 9 C-13.89459074 8.78918149 -13.89459074 8.78918149 -17 10 C-17 9.34 -17 8.68 -17 8 C-18.65 8 -20.3 8 -22 8 C-22 7.67 -22 7.34 -22 7 C-21.07767578 6.85304687 -21.07767578 6.85304687 -20.13671875 6.703125 C-15.00590695 5.86708954 -15.00590695 5.86708954 -10.9375 2.875 C-10.628125 2.25625 -10.31875 1.6375 -10 1 C-8.0625 1.3125 -8.0625 1.3125 -6 2 C-5.67 2.99 -5.34 3.98 -5 5 C-5.33 5.33 -5.66 5.66 -6 6 C-3.03 6.495 -3.03 6.495 0 7 C0 4.69 0 2.38 0 0 Z " fill="#53499D" transform="translate(461,237)"/>
<path d="M0 0 C2.64 0 5.28 0 8 0 C8.2475 0.94875 8.495 1.8975 8.75 2.875 C9.66213775 6.09129506 9.66213775 6.09129506 12.078125 7.1953125 C12.71234375 7.46085937 13.3465625 7.72640625 14 8 C12.23397681 8.41676948 10.46185699 8.8077738 8.6875 9.1875 C7.70136719 9.40792969 6.71523437 9.62835938 5.69921875 9.85546875 C3 10 3 10 1.15625 8.78125 C-0.67238008 5.96417123 -0.18452367 3.25991812 0 0 Z " fill="#3F3693" transform="translate(225,263)"/>
<path d="M0 0 C1.45742463 -0.08096803 2.91612807 -0.13917774 4.375 -0.1875 C5.18710937 -0.22230469 5.99921875 -0.25710938 6.8359375 -0.29296875 C7.55007813 -0.19628906 8.26421875 -0.09960938 9 0 C9.66 0.99 10.32 1.98 11 3 C11.99 3.66 12.98 4.32 14 5 C9.25 6.125 9.25 6.125 7 5 C7 4.34 7 3.68 7 3 C6.01 3 5.02 3 4 3 C4 3.99 4 4.98 4 6 C5.88316159 7.10836423 5.88316159 7.10836423 8 8 C8.66 7.67 9.32 7.34 10 7 C9.67 8.32 9.34 9.64 9 11 C9.66 11.33 10.32 11.66 11 12 C6.59918289 11.49704947 4.0580116 10.22790113 1 7 C0.1875 3.25 0.1875 3.25 0 0 Z " fill="#514A90" transform="translate(347,260)"/>
<path d="M0 0 C0.99 0.33 1.98 0.66 3 1 C3 3.64 3 6.28 3 9 C0.03 9 -2.94 9 -6 9 C-5.34 8.01 -4.68 7.02 -4 6 C-5.83333333 2.83333333 -5.83333333 2.83333333 -9 1 C-6.01002175 -0.49498913 -3.29957225 -0.11577446 0 0 Z " fill="#433A8F" transform="translate(435,222)"/>
<path d="M0 0 C2.15377564 2.62198774 3.40072174 4.64404172 4 8 C1 8 1 8 -1 7 C-0.88693303 8.95894361 -0.88693303 8.95894361 0 11 C2.49034386 12.29660434 2.49034386 12.29660434 5 13 C2.73572111 16.39641834 0.41924906 17.84438646 -3 20 C-4.32052882 12.73709149 -4.20004336 6.30006504 0 0 Z " fill="#382D92" transform="translate(382,241)"/>
<path d="M0 0 C3.1489715 1.36911804 5.0478487 2.8752136 7.25 5.5 C7.77078125 6.1084375 8.2915625 6.716875 8.828125 7.34375 C10 9 10 9 10 11 C9.01 11.33 8.02 11.66 7 12 C6.34 9.69 5.68 7.38 5 5 C3.02 5.66 1.04 6.32 -1 7 C-1 8.65 -1 10.3 -1 12 C-1.66 12 -2.32 12 -3 12 C-3 13.32 -3 14.64 -3 16 C-2.34 16 -1.68 16 -1 16 C-0.67 16.99 -0.34 17.98 0 19 C-0.99 19 -1.98 19 -3 19 C-4.71328765 15.80186306 -5.06286225 14.32154995 -4.35546875 10.703125 C-3.97003906 9.56359375 -3.58460938 8.4240625 -3.1875 7.25 C-2.80980469 6.10015625 -2.43210938 4.9503125 -2.04296875 3.765625 C-1 1 -1 1 0 0 Z " fill="#649DEA" transform="translate(136,211)"/>
<path d="M0 0 C0.33 1.32 0.66 2.64 1 4 C0.50628906 4.40992188 0.01257813 4.81984375 -0.49609375 5.2421875 C-1.45708984 6.05042969 -1.45708984 6.05042969 -2.4375 6.875 C-3.07558594 7.40867188 -3.71367188 7.94234375 -4.37109375 8.4921875 C-6.10805004 9.9222757 -6.10805004 9.9222757 -7 12 C-7.66 12 -8.32 12 -9 12 C-9.12375 12.61875 -9.2475 13.2375 -9.375 13.875 C-10 16 -10 16 -12 18 C-12.474375 18.53625 -12.94875 19.0725 -13.4375 19.625 C-15 21 -15 21 -18 21 C-16.49017269 17.57143381 -14.48286031 15.04321784 -12 12.25 C-11.29875 11.45078125 -10.5975 10.6515625 -9.875 9.828125 C-8 8 -8 8 -6 8 C-5.7525 7.4225 -5.505 6.845 -5.25 6.25 C-3.83316683 3.6997003 -2.12372463 1.98214299 0 0 Z " fill="#6296E7" transform="translate(90,231)"/>
<path d="M0 0 C5.75 -0.125 5.75 -0.125 8 1 C8 1.99 8 2.98 8 4 C9.32 4 10.64 4 12 4 C12 4.99 12 5.98 12 7 C11.34 7 10.68 7 10 7 C10 7.99 10 8.98 10 10 C4.06 9.01 4.06 9.01 -2 8 C1 4 1 4 3.1875 3.25 C3.785625 3.1675 4.38375 3.085 5 3 C2.525 2.01 2.525 2.01 0 1 C0 0.67 0 0.34 0 0 Z " fill="#302585" transform="translate(394,236)"/>
<path d="M0 0 C-0.66 0 -1.32 0 -2 0 C-1.835 0.928125 -1.67 1.85625 -1.5 2.8125 C-1 6 -1 6 -1 9 C-1.66 9 -2.32 9 -3 9 C-3.33 9.66 -3.66 10.32 -4 11 C-5.125 7.25 -5.125 7.25 -4 5 C-5.65 5 -7.3 5 -9 5 C-9.33 6.32 -9.66 7.64 -10 9 C-10.99 9 -11.98 9 -13 9 C-11.64717831 4.57258356 -9.76701112 2.63690779 -6 0 C-3.50907189 -1.24546405 -2.58919267 -0.7767578 0 0 Z " fill="#4B4294" transform="translate(226,237)"/>
<path d="M0 0 C0.33 0.99 0.66 1.98 1 3 C0.67 3.66 0.34 4.32 0 5 C3.3 5.33 6.6 5.66 10 6 C10 6.33 10 6.66 10 7 C3.73 7 -2.54 7 -9 7 C-8.67 5.35 -8.34 3.7 -8 2 C-2.25 0 -2.25 0 0 0 Z " fill="#3878F3" transform="translate(79,250)"/>
<path d="M0 0 C0.66 0 1.32 0 2 0 C3.11346788 2.80033839 3.03510273 3.90143703 2.00390625 6.796875 C1.52824219 7.77140625 1.05257812 8.7459375 0.5625 9.75 C-0.14712891 11.22726562 -0.14712891 11.22726562 -0.87109375 12.734375 C-1.24363281 13.48203125 -1.61617188 14.2296875 -2 15 C-4.44921875 14.1328125 -4.44921875 14.1328125 -7 13 C-7.8125 10.875 -7.8125 10.875 -8 9 C-7.195625 8.731875 -6.39125 8.46375 -5.5625 8.1875 C-4.716875 7.795625 -3.87125 7.40375 -3 7 C-2.67 6.01 -2.34 5.02 -2 4 C-1.01 4 -0.02 4 1 4 C0.67 2.68 0.34 1.36 0 0 Z " fill="#496FE9" transform="translate(76,277)"/>
<path d="M0 0 C1.65 0 3.3 0 5 0 C5.66 2.31 6.32 4.62 7 7 C5.625 8.5 5.625 8.5 4 10 C3.34 10 2.68 10 2 10 C1.34 12.31 0.68 14.62 0 17 C-1.32 17.33 -2.64 17.66 -4 18 C-3.71125 17.443125 -3.4225 16.88625 -3.125 16.3125 C-2.75375 15.549375 -2.3825 14.78625 -2 14 C-1.62875 13.278125 -1.2575 12.55625 -0.875 11.8125 C0.35411435 7.8617753 0.16096648 4.10464516 0 0 Z " fill="#302182" transform="translate(237,247)"/>
<path d="M0 0 C11.81704415 -0.86046438 11.81704415 -0.86046438 15.75 2.3125 C18 5 18 5 18 8 C16.02 8.33 14.04 8.66 12 9 C12.33 8.01 12.66 7.02 13 6 C12.34 5.01 11.68 4.02 11 3 C8.10391601 2.63501966 8.10391601 2.63501966 4.875 2.8125 C3.77929688 2.83957031 2.68359375 2.86664063 1.5546875 2.89453125 C0.29011719 2.94673828 0.29011719 2.94673828 -1 3 C-0.67 2.01 -0.34 1.02 0 0 Z " fill="#463E8A" transform="translate(287,236)"/>
<path d="M0 0 C1.65 0 3.3 0 5 0 C5 2.64 5 5.28 5 8 C3.35 7.67 1.7 7.34 0 7 C0.33 8.32 0.66 9.64 1 11 C0.34 11 -0.32 11 -1 11 C-1.33 10.01 -1.66 9.02 -2 8 C-2.66 7.67 -3.32 7.34 -4 7 C-4 6.01 -4 5.02 -4 4 C-3.01 3.67 -2.02 3.34 -1 3 C-0.67 2.01 -0.34 1.02 0 0 Z " fill="#2E238E" transform="translate(217,242)"/>
<path d="M0 0 C0.33 0 0.66 0 1 0 C1 1.65 1 3.3 1 5 C3.97 5 6.94 5 10 5 C10 7.31 10 9.62 10 12 C7.36 12 4.72 12 2 12 C2.66 11.01 3.32 10.02 4 9 C3.34 8.67 2.68 8.34 2 8 C2 7.34 2 6.68 2 6 C1.34 6 0.68 6 0 6 C0 4.02 0 2.04 0 0 Z " fill="#281F72" transform="translate(451,232)"/>
<path d="M0 0 C0.7940625 0.07863281 1.588125 0.15726563 2.40625 0.23828125 C4.5 0.6875 4.5 0.6875 6.5 2.6875 C5.51 3.3475 4.52 4.0075 3.5 4.6875 C2.84 4.3575 2.18 4.0275 1.5 3.6875 C1.17 4.6775 0.84 5.6675 0.5 6.6875 C-0.16 6.6875 -0.82 6.6875 -1.5 6.6875 C-1.83 5.3675 -2.16 4.0475 -2.5 2.6875 C-5.14 3.3475 -7.78 4.0075 -10.5 4.6875 C-6.83176628 0.89699182 -5.30282239 -0.57676802 0 0 Z " fill="#443A95" transform="translate(393.5,236.3125)"/>
<path d="M0 0 C2.97 0 5.94 0 9 0 C9 3.3 9 6.6 9 10 C8.34 9.01 7.68 8.02 7 7 C5.35 7.66 3.7 8.32 2 9 C1.855625 7.88625 1.71125 6.7725 1.5625 5.625 C1.21627965 2.17857953 1.21627965 2.17857953 0 0 Z " fill="#4B4199" transform="translate(444,227)"/>
<path d="M0 0 C1.134375 0.020625 2.26875 0.04125 3.4375 0.0625 C3.1075 2.3725 2.7775 4.6825 2.4375 7.0625 C-0.2025 7.3925 -2.8425 7.7225 -5.5625 8.0625 C-4.54651535 0.07976343 -4.54651535 0.07976343 0 0 Z " fill="#3B3090" transform="translate(267.5625,235.9375)"/>
<path d="M0 0 C0.33 0.99 0.66 1.98 1 3 C1.99 3.33 2.98 3.66 4 4 C4 4.99 4 5.98 4 7 C4.66 7.33 5.32 7.66 6 8 C5.34 9.65 4.68 11.3 4 13 C1 13 1 13 -1 12 C-1.14285714 3.42857143 -1.14285714 3.42857143 0 0 Z " fill="#453897" transform="translate(212,246)"/>
<path d="M0 0 C0.99 1.98 1.98 3.96 3 6 C3.99 6 4.98 6 6 6 C6 6.66 6 7.32 6 8 C1.53160785 8.21278058 -1.82262526 7.59138085 -6 6 C-6 4.68 -6 3.36 -6 2 C-3 0 -3 0 0 0 Z " fill="#388DFA" transform="translate(141,216)"/>
<path d="M0 0 C0.99 0 1.98 0 3 0 C2.43416161 3.28186266 1.58727596 4.89184922 -1 7 C-1.70125 7.33 -2.4025 7.66 -3.125 8 C-5.3530435 8.91202978 -5.3530435 8.91202978 -6 12 C-6.66 12 -7.32 12 -8 12 C-7.67 9.69 -7.34 7.38 -7 5 C-6.34 5 -5.68 5 -5 5 C-4.67 3.68 -4.34 2.36 -4 1 C-3.34 1.66 -2.68 2.32 -2 3 C-1.34 2.01 -0.68 1.02 0 0 Z " fill="#335FF9" transform="translate(83,295)"/>
<path d="M0 0 C1.11393093 3.34179279 0.75376997 4.64991123 0 8 C0 8.99 0 9.98 0 11 C-1.65614657 11.38218767 -3.32457024 11.71395102 -5 12 C-6 11 -6 11 -6.0625 7.9375 C-6.041875 6.968125 -6.02125 5.99875 -6 5 C-5.34 5 -4.68 5 -4 5 C-3.67 4.01 -3.34 3.02 -3 2 C-2.01 1.34 -1.02 0.68 0 0 Z " fill="#2F248E" transform="translate(339,257)"/>
<path d="M0 0 C-0.99 0.66 -1.98 1.32 -3 2 C-3.99530794 3.89768759 -3.99530794 3.89768759 -4 6 C-2.64555699 7.77190909 -2.64555699 7.77190909 -1 9 C-1.66 9 -2.32 9 -3 9 C-3.66 10.32 -4.32 11.64 -5 13 C-5.66666667 10.33333333 -6.33333333 7.66666667 -7 5 C-8.65 5.33 -10.3 5.66 -12 6 C-4.8 -1.6 -4.8 -1.6 0 0 Z " fill="#4F4693" transform="translate(324,237)"/>
<path d="M0 0 C0.33 0 0.66 0 1 0 C1 2.97 1 5.94 1 9 C1.99 8.67 2.98 8.34 4 8 C4.66 8.66 5.32 9.32 6 10 C5.34 10 4.68 10 4 10 C4.33 10.66 4.66 11.32 5 12 C5.99 12.33 6.98 12.66 8 13 C7.67 13.99 7.34 14.98 7 16 C1.25 13.375 1.25 13.375 -1 10 C-1.39958487 6.57982443 -1.5635348 3.12706959 0 0 Z " fill="#5E579B" transform="translate(348,241)"/>
<path d="M0 0 C1.31538327 4.15771494 0.34433068 6.8879297 -1 11 C-0.34 11 0.32 11 1 11 C0.67 12.32 0.34 13.64 0 15 C-1.32 15.33 -2.64 15.66 -4 16 C-5.35304209 11.94087374 -4.15216503 10.22850409 -2.5625 6.3125 C-2.08941406 5.13300781 -1.61632812 3.95351563 -1.12890625 2.73828125 C-0.75636719 1.83464844 -0.38382812 0.93101562 0 0 Z " fill="#506DDE" transform="translate(76,296)"/>
<path d="M0 0 C0.33 1.32 0.66 2.64 1 4 C0.34 4 -0.32 4 -1 4 C-0.67 5.98 -0.34 7.96 0 10 C1.65 10 3.3 10 5 10 C2.5864274 12.89150777 0.60049242 13.60579601 -3.0625 14.3125 C-3.94035156 14.49425781 -4.81820313 14.67601562 -5.72265625 14.86328125 C-6.47417969 14.90839844 -7.22570312 14.95351563 -8 15 C-8.66 14.34 -9.32 13.68 -10 13 C-7.69 13 -5.38 13 -3 13 C-3.33 12.01 -3.66 11.02 -4 10 C-3.34 10 -2.68 10 -2 10 C-2 7.69 -2 5.38 -2 3 C-1.34 3 -0.68 3 0 3 C0 2.01 0 1.02 0 0 Z " fill="#564F94" transform="translate(334,258)"/>
<path d="M0 0 C1.051875 0.2475 1.051875 0.2475 2.125 0.5 C5.13888194 1.02415338 7.94713625 1.07099683 11 1 C11 1.66 11 2.32 11 3 C9.02 3 7.04 3 5 3 C5 3.66 5 4.32 5 5 C3.68 5 2.36 5 1 5 C0.34 6.32 -0.32 7.64 -1 9 C-1.99 8.67 -2.98 8.34 -4 8 C-4.33 7.01 -4.66 6.02 -5 5 C-4.360625 4.731875 -3.72125 4.46375 -3.0625 4.1875 C-0.66868314 3.11332248 -0.66868314 3.11332248 0 0 Z " fill="#403790" transform="translate(450,262)"/>
<path d="M0 0 C1.32 0.33 2.64 0.66 4 1 C4.45842179 4.53366794 4.18346888 5.7506425 2.03125 8.67578125 C1.1959375 9.54589844 0.360625 10.41601562 -0.5 11.3125 C-1.3353125 12.19550781 -2.170625 13.07851562 -3.03125 13.98828125 C-3.6809375 14.65214844 -4.330625 15.31601562 -5 16 C-5.33 15.01 -5.66 14.02 -6 13 C-5.01 12.67 -4.02 12.34 -3 12 C-3 11.34 -3 10.68 -3 10 C-2.34 10 -1.68 10 -1 10 C-1.33 8.35 -1.66 6.7 -2 5 C-0.68 4.34 0.64 3.68 2 3 C2 2.34 2 1.68 2 1 C1.34 0.67 0.68 0.34 0 0 Z " fill="#669AEA" transform="translate(132,241)"/>
<path d="M0 0 C0.33 0 0.66 0 1 0 C1 2.64 1 5.28 1 8 C-1.64 8 -4.28 8 -7 8 C-7 7.67 -7 7.34 -7 7 C-4.69 7 -2.38 7 0 7 C-1.18424326 5.58422523 -1.18424326 5.58422523 -4.5625 5.9375 C-6.2640625 5.9684375 -6.2640625 5.9684375 -8 6 C-7.67 4.68 -7.34 3.36 -7 2 C-5.02 2 -3.04 2 -1 2 C-0.67 1.34 -0.34 0.68 0 0 Z " fill="#3B338D" transform="translate(436,237)"/>
<path d="M0 0 C0 0.66 0 1.32 0 2 C-2.90567134 4.01782732 -5.51669784 5.35494404 -9 6 C-9 6.66 -9 7.32 -9 8 C-10.32 8.33 -11.64 8.66 -13 9 C-13 9.66 -13 10.32 -13 11 C-13.66 10.67 -14.32 10.34 -15 10 C-13.625 8 -13.625 8 -12 6 C-11.34 6 -10.68 6 -10 6 C-10 5.34 -10 4.68 -10 4 C-9.34 4 -8.68 4 -8 4 C-8 3.34 -8 2.68 -8 2 C-4.77208445 -0.1519437 -3.71599191 -0.20086443 0 0 Z " fill="#5A7FE6" transform="translate(110,287)"/>
<path d="M0 0 C0.33 0.66 0.66 1.32 1 2 C1.66 2 2.32 2 3 2 C5.17364926 4.81769349 6.08677021 6.2190681 5.6875 9.8125 C5.460625 10.534375 5.23375 11.25625 5 12 C5.99 12.33 6.98 12.66 8 13 C7.01 14.485 7.01 14.485 6 16 C3.15543212 11.11429181 0.54545146 6.47932789 -1 1 C-0.67 0.67 -0.34 0.34 0 0 Z " fill="#587FEB" transform="translate(55,266)"/>
<path d="M0 0 C0.33 0 0.66 0 1 0 C1 4.29 1 8.58 1 13 C0.67 12.01 0.34 11.02 0 10 C-0.66 10 -1.32 10 -2 10 C-2.33 10.66 -2.66 11.32 -3 12 C-3.33 11.01 -3.66 10.02 -4 9 C-4.99 9.33 -5.98 9.66 -7 10 C-7 9.34 -7 8.68 -7 8 C-5.68 7.67 -4.36 7.34 -3 7 C-3.33 6.01 -3.66 5.02 -4 4 C-3.34 4 -2.68 4 -2 4 C-1.34 2.68 -0.68 1.36 0 0 Z " fill="#433996" transform="translate(413,248)"/>
<path d="M0 0 C1.32 0.66 2.64 1.32 4 2 C3.5206753 6.31392226 2.2542015 8.16569547 -1 11 C-1.33 8.36 -1.66 5.72 -2 3 C-1.34 3 -0.68 3 0 3 C0 2.01 0 1.02 0 0 Z " fill="#453C94" transform="translate(340,257)"/>
<path d="M0 0 C-1.32 1.32 -2.64 2.64 -4 4 C-4.66 3.34 -5.32 2.68 -6 2 C-8.89223503 1.53603307 -8.89223503 1.53603307 -12.125 1.375 C-13.76855469 1.26285156 -13.76855469 1.26285156 -15.4453125 1.1484375 C-16.70988281 1.07496094 -16.70988281 1.07496094 -18 1 C-18 4.63 -18 8.26 -18 12 C-18.33 12 -18.66 12 -19 12 C-19 8.04 -19 4.08 -19 0 C-16.77156512 -0.19600577 -14.54220107 -0.38146569 -12.3125 -0.5625 C-10.45044922 -0.71912109 -10.45044922 -0.71912109 -8.55078125 -0.87890625 C-5.44164467 -0.98493841 -2.99189028 -0.77228525 0 0 Z " fill="#6962AC" transform="translate(202,251)"/>
<path d="M0 0 C0.66 0 1.32 0 2 0 C2 0.99 2 1.98 2 3 C1.34 3 0.68 3 0 3 C0.33 3.99 0.66 4.98 1 6 C-1 8 -1 8 -3.1640625 8.1953125 C-4.38222656 8.16050781 -4.38222656 8.16050781 -5.625 8.125 C-6.44226563 8.10695312 -7.25953125 8.08890625 -8.1015625 8.0703125 C-8.72804687 8.04710937 -9.35453125 8.02390625 -10 8 C-6.91190305 6.23537317 -5.76687864 6 -2 6 C-2 5.34 -2 4.68 -2 4 C-4.97 3.67 -7.94 3.34 -11 3 C-11 2.67 -11 2.34 -11 2 C-10.28972656 1.93941406 -9.57945312 1.87882813 -8.84765625 1.81640625 C-7.46900391 1.69072266 -7.46900391 1.69072266 -6.0625 1.5625 C-5.14597656 1.48128906 -4.22945312 1.40007812 -3.28515625 1.31640625 C-1.03840268 1.23955024 -1.03840268 1.23955024 0 0 Z " fill="#2E2483" transform="translate(194,243)"/>
<path d="M0 0 C0.66 0 1.32 0 2 0 C1.01 4.62 0.02 9.24 -1 14 C1.31 14.33 3.62 14.66 6 15 C6 15.33 6 15.66 6 16 C-0.15234375 16.09765625 -0.15234375 16.09765625 -2 16 C-3.55090815 14.44909185 -3.20677311 12.96303767 -3.25 10.8125 C-3.22267577 6.5362574 -2.2681142 3.68568558 0 0 Z " fill="#69A2EC" transform="translate(124,225)"/>
<path d="M0 0 C1.58971965 2.38457948 2.86741593 4.6304124 4.125 7.1875 C4.47820312 7.90292969 4.83140625 8.61835938 5.1953125 9.35546875 C5.46085937 9.89816406 5.72640625 10.44085938 6 11 C5.01 11.33 4.02 11.66 3 12 C2.34 11.01 1.68 10.02 1 9 C-1.05925139 8.27617533 -1.05925139 8.27617533 -3 8 C-2.25 2.25 -2.25 2.25 0 0 Z " fill="#517DEF" transform="translate(67,261)"/>
<path d="M0 0 C1.65 0 3.3 0 5 0 C4.67 0.99 4.34 1.98 4 3 C6.97 3.495 6.97 3.495 10 4 C9.67 5.32 9.34 6.64 9 8 C8.01 7.67 7.02 7.34 6 7 C5.34 7 4.68 7 4 7 C4 6.34 4 5.68 4 5 C2.68 4.67 1.36 4.34 0 4 C0 2.68 0 1.36 0 0 Z " fill="#312590" transform="translate(350,262)"/>
<path d="M0 0 C-1.65 0.33 -3.3 0.66 -5 1 C-5 1.66 -5 2.32 -5 3 C-4.34 3.33 -3.68 3.66 -3 4 C-7.455 4.495 -7.455 4.495 -12 5 C-11.67 3.68 -11.34 2.36 -11 1 C-3.57142857 -1.42857143 -3.57142857 -1.42857143 0 0 Z " fill="#302685" transform="translate(370,238)"/>
<path d="M0 0 C1.32 0 2.64 0 4 0 C3.7589852 6.14587738 3.7589852 6.14587738 1.59765625 8.578125 C0.11953029 9.78844931 -1.43647953 10.90220903 -3 12 C-2.67 10.35 -2.34 8.7 -2 7 C-0.68 6.67 0.64 6.34 2 6 C1.01 5.01 0.02 4.02 -1 3 C-0.67 2.01 -0.34 1.02 0 0 Z " fill="#4498F7" transform="translate(105,199)"/>
<path d="M0 0 C0.66 0.99 1.32 1.98 2 3 C1.34 3.66 0.68 4.32 0 5 C-0.99 5 -1.98 5 -3 5 C-3.268125 5.598125 -3.53625 6.19625 -3.8125 6.8125 C-5.00987475 9.01819033 -6.04478984 10.43583187 -8 12 C-8.99 12 -9.98 12 -11 12 C-11 11.34 -11 10.68 -11 10 C-10.34 10 -9.68 10 -9 10 C-9 9.34 -9 8.68 -9 8 C-8.34 8 -7.68 8 -7 8 C-7 7.34 -7 6.68 -7 6 C-5.46875 4.4921875 -5.46875 4.4921875 -3.5 2.875 C-2.8503125 2.33617187 -2.200625 1.79734375 -1.53125 1.2421875 C-0.77328125 0.62730469 -0.77328125 0.62730469 0 0 Z " fill="#72ACEE" transform="translate(128,191)"/>
<path d="M0 0 C0.99 0.33 1.98 0.66 3 1 C2.59007813 1.64066406 2.18015625 2.28132812 1.7578125 2.94140625 C-1.33815426 7.91124762 -3.75372504 12.26713518 -5 18 C-5.33 18 -5.66 18 -6 18 C-6.17523261 12.91825435 -6.28258584 8.67930096 -4 4 C-1.875 3.125 -1.875 3.125 0 3 C0 2.01 0 1.02 0 0 Z " fill="#6DA0EC" transform="translate(71,226)"/>
<path d="M0 0 C4.43476564 0.70022615 5.85246408 1.85246408 9 5 C5.7 5.33 2.4 5.66 -1 6 C-1.33 4.68 -1.66 3.36 -2 2 C-1.34 2 -0.68 2 0 2 C0 1.34 0 0.68 0 0 Z " fill="#2F248B" transform="translate(425,224)"/>
<path d="M0 0 C3.5625 0.1875 3.5625 0.1875 6.5625 1.1875 C6.5625 3.1675 6.5625 5.1475 6.5625 7.1875 C5.9025 6.1975 5.2425 5.2075 4.5625 4.1875 C3.5725 4.1875 2.5825 4.1875 1.5625 4.1875 C-0.77960921 3.55235174 -3.11434969 2.8888284 -5.4375 2.1875 C-3.4375 0.1875 -3.4375 0.1875 0 0 Z " fill="#6962A4" transform="translate(431.4375,221.8125)"/>
<path d="M0 0 C0.99 0.66 1.98 1.32 3 2 C2.01 2.495 2.01 2.495 1 3 C0.566875 3.928125 0.566875 3.928125 0.125 4.875 C-1.19480413 7.36796335 -2.67721672 8.45147781 -5 10 C-5 9.01 -5 8.02 -5 7 C-5.66 6.67 -6.32 6.34 -7 6 C-6.01 5.34 -5.02 4.68 -4 4 C-3.67 3.01 -3.34 2.02 -3 1 C-2.01 0.67 -1.02 0.34 0 0 Z " fill="#4D439E" transform="translate(372,253)"/>
<path d="M0 0 C0.96661363 3.12180401 0.98988909 5.52083795 0.5625 8.75 C0.46066406 9.54921875 0.35882813 10.3484375 0.25390625 11.171875 C0.12822266 12.07679688 0.12822266 12.07679688 0 13 C-1.65 13.33 -3.3 13.66 -5 14 C-3.45730076 9.27934033 -1.92205381 4.58335908 0 0 Z " fill="#527DE9" transform="translate(88,269)"/>
<path d="M0 0 C0.33 0.66 0.66 1.32 1 2 C1.66 2 2.32 2 3 2 C3.33 2.66 3.66 3.32 4 4 C6.01669827 5.13350534 6.01669827 5.13350534 8 6 C5.625 7.5625 5.625 7.5625 3 9 C2.34 8.67 1.68 8.34 1 8 C1 6.68 1 5.36 1 4 C0.01 4.33 -0.98 4.66 -2 5 C-2 3.68 -2 2.36 -2 1 C-1.34 0.67 -0.68 0.34 0 0 Z " fill="#4F4798" transform="translate(366,263)"/>
<path d="M0 0 C0 0.33 0 0.66 0 1 C-1.65 1.33 -3.3 1.66 -5 2 C-5 3.32 -5 4.64 -5 6 C-3.02 6 -1.04 6 1 6 C1.33 6.66 1.66 7.32 2 8 C-1.3 8 -4.6 8 -8 8 C-9 4 -9 4 -8 1 C-5.29120665 -0.35439668 -2.99066732 -0.06501451 0 0 Z " fill="#291E7F" transform="translate(232,236)"/>
<path d="M0 0 C0.721875 0.268125 1.44375 0.53625 2.1875 0.8125 C1.8575 2.4625 1.5275 4.1125 1.1875 5.8125 C0.1975 5.1525 -0.7925 4.4925 -1.8125 3.8125 C-2.4725 3.8125 -3.1325 3.8125 -3.8125 3.8125 C-3.8125 4.4725 -3.8125 5.1325 -3.8125 5.8125 C-5.1325 5.4825 -6.4525 5.1525 -7.8125 4.8125 C-3.50480769 -0.23365385 -3.50480769 -0.23365385 0 0 Z " fill="#629CE8" transform="translate(136.8125,185.1875)"/>
<path d="M0 0 C0.66 0.33 1.32 0.66 2 1 C0.53967505 6.31027254 -1.98320986 10.46330032 -5 15 C-5.33 13.68 -5.66 12.36 -6 11 C-5.34 11 -4.68 11 -4 11 C-4 9.68 -4 8.36 -4 7 C-3.34 7 -2.68 7 -2 7 C-2 5.68 -2 4.36 -2 3 C-1.34 3 -0.68 3 0 3 C0 2.01 0 1.02 0 0 Z " fill="#577EE4" transform="translate(149,267)"/>
<path d="M0 0 C0.66 1.32 1.32 2.64 2 4 C1.34 4 0.68 4 0 4 C0 5.65 0 7.3 0 9 C-0.66 9 -1.32 9 -2 9 C-2 10.32 -2 11.64 -2 13 C-1.34 13 -0.68 13 0 13 C0.33 13.99 0.66 14.98 1 16 C0.01 16 -0.98 16 -2 16 C-3.59504102 12.94934462 -4.12038901 11.51269115 -3.3203125 8.10546875 C-2.72863281 6.66107422 -2.72863281 6.66107422 -2.125 5.1875 C-1.73570312 4.21167969 -1.34640625 3.23585937 -0.9453125 2.23046875 C-0.63335937 1.49441406 -0.32140625 0.75835937 0 0 Z " fill="#4F90E7" transform="translate(135,214)"/>
<path d="M0 0 C-0.8125 2.4375 -0.8125 2.4375 -2 5 C-4 5.66666667 -6 6.33333333 -8 7 C-8.1875 4.625 -8.1875 4.625 -8 2 C-4.77208445 -0.1519437 -3.71599191 -0.20086443 0 0 Z " fill="#2C2184" transform="translate(364,250)"/>
<path d="M0 0 C1.9375 0.5 1.9375 0.5 4 2 C4.68790422 4.69658452 4.81946464 7.2017019 5 10 C3.68 10.33 2.36 10.66 1 11 C1.66 9.35 2.32 7.7 3 6 C2.34 6 1.68 6 1 6 C0.67 4.02 0.34 2.04 0 0 Z " fill="#352C81" transform="translate(408,241)"/>
<path d="M0 0 C-2.64 2.97 -5.28 5.94 -8 9 C-8.33 7.68 -8.66 6.36 -9 5 C-8.01 4.67 -7.02 4.34 -6 4 C-6 2.68 -6 1.36 -6 0 C-3 -1 -3 -1 0 0 Z " fill="#5F89EA" transform="translate(112,273)"/>
<path d="M0 0 C0.99 0 1.98 0 3 0 C4.6875 2 4.6875 2 6 4 C5.67 4.66 5.34 5.32 5 6 C5.66 6.66 6.32 7.32 7 8 C5.125 8.625 5.125 8.625 3 9 C2.34 8.34 1.68 7.68 1 7 C1.33 6.34 1.66 5.68 2 5 C1.34 4.67 0.68 4.34 0 4 C0 2.68 0 1.36 0 0 Z " fill="#2D2286" transform="translate(320,263)"/>
<path d="M0 0 C0.66 1.32 1.32 2.64 2 4 C-2.455 7.465 -2.455 7.465 -7 11 C-7.66 10.67 -8.32 10.34 -9 10 C-6.03 6.7 -3.06 3.4 0 0 Z " fill="#5FA3EB" transform="translate(116,203)"/>
<path d="M0 0 C2.97 0.495 2.97 0.495 6 1 C6.33 2.32 6.66 3.64 7 5 C4.29120665 6.35439668 1.99066732 6.06501451 -1 6 C-0.649375 5.38125 -0.29875 4.7625 0.0625 4.125 C0.371875 3.42375 0.68125 2.7225 1 2 C0.67 1.34 0.34 0.68 0 0 Z " fill="#32268F" transform="translate(326,237)"/>
<path d="M0 0 C0.66 0 1.32 0 2 0 C2.38133299 1.9914056 2.71325582 3.99279077 3 6 C2 7 2 7 0.15234375 7.09765625 C-1.8984375 7.06510417 -3.94921875 7.03255208 -6 7 C-4.68 6.67 -3.36 6.34 -2 6 C-2.33 5.01 -2.66 4.02 -3 3 C-2.01 3 -1.02 3 0 3 C0 2.01 0 1.02 0 0 Z " fill="#372F7D" transform="translate(459,265)"/>
<path d="M0 0 C2.15377564 2.62198774 3.40072174 4.64404172 4 8 C2 8 0 8 -2 8 C-2.33 7.01 -2.66 6.02 -3 5 C-1.5625 2.3125 -1.5625 2.3125 0 0 Z " fill="#484096" transform="translate(382,241)"/>
<path d="M0 0 C0.66 0 1.32 0 2 0 C3.00685307 3.0205592 3.02876261 4.47076266 2.6875 7.5625 C2.60886719 8.34753906 2.53023438 9.13257813 2.44921875 9.94140625 C2 12 2 12 0 14 C0 9.38 0 4.76 0 0 Z " fill="#32287D" transform="translate(297,244)"/>
<path d="M0 0 C2.5 1.8125 2.5 1.8125 5 4 C5 4.99 5 5.98 5 7 C3.02 7.33 1.04 7.66 -1 8 C-0.67 7.01 -0.34 6.02 0 5 C-0.33 4.01 -0.66 3.02 -1 2 C-0.67 1.34 -0.34 0.68 0 0 Z " fill="#504698" transform="translate(300,237)"/>
<path d="M0 0 C0.33 0 0.66 0 1 0 C1.33 4.62 1.66 9.24 2 14 C1.67 13.34 1.34 12.68 1 12 C0.34 12 -0.32 12 -1 12 C-1.02687279 10.18757948 -1.04633715 8.37504767 -1.0625 6.5625 C-1.07410156 5.55316406 -1.08570313 4.54382813 -1.09765625 3.50390625 C-1 1 -1 1 0 0 Z " fill="#433C83" transform="translate(310,248)"/>
<path d="M0 0 C0.99 0 1.98 0 3 0 C3.05391993 1.79133978 3.09275571 3.58313899 3.125 5.375 C3.14820313 6.37273437 3.17140625 7.37046875 3.1953125 8.3984375 C3 11 3 11 1 13 C0.67 8.71 0.34 4.42 0 0 Z " fill="#3B3484" transform="translate(334,247)"/>
<path d="M0 0 C0.99 0 1.98 0 3 0 C4.0625 1.875 4.0625 1.875 5 4 C4.67 4.66 4.34 5.32 4 6 C1.71484375 6.4140625 1.71484375 6.4140625 -1.0625 6.625 C-1.98160156 6.69976562 -2.90070313 6.77453125 -3.84765625 6.8515625 C-4.91306641 6.92503906 -4.91306641 6.92503906 -6 7 C-5.67 6.34 -5.34 5.68 -5 5 C-1.9375 4.375 -1.9375 4.375 1 4 C0.67 2.68 0.34 1.36 0 0 Z " fill="#2D2381" transform="translate(291,238)"/>
<path d="M0 0 C1.32 0 2.64 0 4 0 C3.65120368 3.25543229 2.97866739 4.01873107 0.4375 6.25 C-0.366875 6.8275 -1.17125 7.405 -2 8 C-1.125 2.25 -1.125 2.25 0 0 Z " fill="#4780EC" transform="translate(122,255)"/>
<path d="M0 0 C1.32 0.66 2.64 1.32 4 2 C2.7934375 2.4021875 2.7934375 2.4021875 1.5625 2.8125 C0.716875 3.204375 -0.12875 3.59625 -1 4 C-1.33 4.99 -1.66 5.98 -2 7 C-3.32 6.34 -4.64 5.68 -6 5 C-6 4.34 -6 3.68 -6 3 C-4.125 1.9375 -4.125 1.9375 -2 1 C-1.34 1.33 -0.68 1.66 0 2 C0 1.34 0 0.68 0 0 Z " fill="#3E3397" transform="translate(358,248)"/>
<path d="M0 0 C2.31 0 4.62 0 7 0 C7 1.65 7 3.3 7 5 C3 5 3 5 1.25 3.625 C0 2 0 2 0 0 Z " fill="#31258D" transform="translate(453,238)"/>
<path d="M0 0 C0.66 0 1.32 0 2 0 C1.65120368 3.25543229 0.97866739 4.01873107 -1.5625 6.25 C-2.366875 6.8275 -3.17125 7.405 -4 8 C-4.33 6.35 -4.66 4.7 -5 3 C-3.68 3 -2.36 3 -1 3 C-0.67 2.01 -0.34 1.02 0 0 Z " fill="#446DEA" transform="translate(141,280)"/>
<path d="M0 0 C0.66 0 1.32 0 2 0 C2.33 3.63 2.66 7.26 3 11 C2.01 11 1.02 11 0 11 C-1.125 3.375 -1.125 3.375 0 0 Z " fill="#3370F7" transform="translate(134,270)"/>
<path d="M0 0 C0.33 0 0.66 0 1 0 C1.05395478 1.62463842 1.09277195 3.24978541 1.125 4.875 C1.14820313 5.77992188 1.17140625 6.68484375 1.1953125 7.6171875 C1 10 1 10 -1 12 C-1.66 12 -2.32 12 -3 12 C-2.67 10.68 -2.34 9.36 -2 8 C-2.66 7.67 -3.32 7.34 -4 7 C-3.01 6.34 -2.02 5.68 -1 5 C-0.27034634 2.43717258 -0.27034634 2.43717258 0 0 Z " fill="#4A419C" transform="translate(199,255)"/>
<path d="M0 0 C3.67230705 3.07999946 4.56802365 5.2482602 5 10 C0.07692308 5.69230769 0.07692308 5.69230769 -0.3125 2.1875 C-0.209375 1.465625 -0.10625 0.74375 0 0 Z " fill="#645D9F" transform="translate(339,239)"/>
<path d="M0 0 C0.33 0 0.66 0 1 0 C1 3.96 1 7.92 1 12 C0.34 11.67 -0.32 11.34 -1 11 C-2.425 3.6375 -2.425 3.6375 0 0 Z " fill="#403988" transform="translate(206,231)"/>
<path d="M0 0 C1.32 0.33 2.64 0.66 4 1 C4 3.64 4 6.28 4 9 C3.01 8.67 2.02 8.34 1 8 C0.67 5.36 0.34 2.72 0 0 Z " fill="#2F2387" transform="translate(222,263)"/>
<path d="M0 0 C0.99 0.33 1.98 0.66 3 1 C3.99 0.67 4.98 0.34 6 0 C6 1.32 6 2.64 6 4 C3.36 4 0.72 4 -2 4 C-2 3.34 -2 2.68 -2 2 C-1.34 2 -0.68 2 0 2 C0 1.34 0 0.68 0 0 Z " fill="#2D257F" transform="translate(370,243)"/>
<path d="M0 0 C0.33 0.99 0.66 1.98 1 3 C0.01 4.485 0.01 4.485 -1 6 C-1.66 6 -2.32 6 -3 6 C-3 6.66 -3 7.32 -3 8 C-4.32 7.67 -5.64 7.34 -7 7 C-4.69 4.69 -2.38 2.38 0 0 Z " fill="#5C9DEA" transform="translate(106,214)"/>
<path d="M0 0 C2.625 -0.1875 2.625 -0.1875 5 0 C5 1.65 5 3.3 5 5 C2.69 4.34 0.38 3.68 -2 3 C-1.34 2.01 -0.68 1.02 0 0 Z " fill="#456DF5" transform="translate(85,292)"/>
<path d="M0 0 C-1 2 -2 4 -3 6 C-5.0625 6.625 -5.0625 6.625 -7 7 C-6.39816251 4.97954558 -5.72693904 2.97888961 -5 1 C-3 0 -3 0 0 0 Z " fill="#4372EB" transform="translate(103,280)"/>
<path d="M0 0 C2.66666667 0 5.33333333 0 8 0 C7.67 1.32 7.34 2.64 7 4 C7.66 4.33 8.32 4.66 9 5 C4.68607774 4.5206753 2.83430453 3.2542015 0 0 Z " fill="#59539D" transform="translate(349,267)"/>
<path d="M0 0 C0.33 0.66 0.66 1.32 1 2 C1.639375 2.309375 2.27875 2.61875 2.9375 2.9375 C5 4 5 4 7 7 C6.67 7.99 6.34 8.98 6 10 C4.99106869 8.90398831 3.99311775 7.79786082 3 6.6875 C2.1646875 5.76517578 2.1646875 5.76517578 1.3125 4.82421875 C0 3 0 3 0 0 Z " fill="#544B97" transform="translate(310,260)"/>
<path d="M0 0 C3.95820859 0.56545837 6.6659053 1.80902348 10 4 C9.67 4.66 9.34 5.32 9 6 C7 5 5 4 3 3 C2.67 3.66 2.34 4.32 2 5 C1.67 4.34 1.34 3.68 1 3 C1.33 2.34 1.66 1.68 2 1 C1.34 0.67 0.68 0.34 0 0 Z " fill="#554D98" transform="translate(400,236)"/>
<path d="M0 0 C0.28875 0.61875 0.5775 1.2375 0.875 1.875 C1.93720042 4.13325765 1.93720042 4.13325765 4 6 C2.02 7.32 0.04 8.64 -2 10 C-2.33 9.01 -2.66 8.02 -3 7 C-2.34 6.34 -1.68 5.68 -1 5 C-0.35232207 2.42938689 -0.35232207 2.42938689 0 0 Z " fill="#453C94" transform="translate(404,255)"/>
<path d="M0 0 C1.65 0 3.3 0 5 0 C5 0.99 5 1.98 5 3 C4.34 3 3.68 3 3 3 C2.34 4.32 1.68 5.64 1 7 C0.67 4.69 0.34 2.38 0 0 Z " fill="#473E8B" transform="translate(387,243)"/>
<path d="M0 0 C4.7517398 0.43197635 6.92000054 1.32769295 10 5 C6.58978257 4.21302675 3.31114834 3.12880057 0 2 C0 1.34 0 0.68 0 0 Z " fill="#423B87" transform="translate(232,236)"/>
<path d="M0 0 C0.99 0.66 1.98 1.32 3 2 C2.67 3.98 2.34 5.96 2 8 C0.10786631 5.61426621 -1.02391783 3.92824652 -2 1 C-1.34 0.67 -0.68 0.34 0 0 Z " fill="#4E9BF4" transform="translate(130,201)"/>
<path d="M0 0 C1.04449911 3.13349732 0.93423645 3.98968256 0 7 C-1.98 7.33 -3.96 7.66 -6 8 C-5.34 7.67 -4.68 7.34 -4 7 C-4 6.34 -4 5.68 -4 5 C-3.34 5 -2.68 5 -2 5 C-1.34 3.35 -0.68 1.7 0 0 Z " fill="#5C87E5" transform="translate(133,270)"/>
<path d="M0 0 C0.99 0.99 1.98 1.98 3 3 C2.34 3 1.68 3 1 3 C1.33 3.99 1.66 4.98 2 6 C0.35 5.67 -1.3 5.34 -3 5 C-1.125 1.125 -1.125 1.125 0 0 Z " fill="#2D2388" transform="translate(372,262)"/>
<path d="M0 0 C2.64 0 5.28 0 8 0 C8 0.33 8 0.66 8 1 C5.69 1 3.38 1 1 1 C1.66 2.32 2.32 3.64 3 5 C2.01 6.32 1.02 7.64 0 9 C0 6.03 0 3.06 0 0 Z " fill="#281E79" transform="translate(444,228)"/>
<path d="M0 0 C0.66 1.32 1.32 2.64 2 4 C1.01 5.485 1.01 5.485 0 7 C-0.66 7 -1.32 7 -2 7 C-2.6875 5.1875 -2.6875 5.1875 -3 3 C-1.5625 1.25 -1.5625 1.25 0 0 Z " fill="#4F96F0" transform="translate(126,217)"/>
<path d="M0 0 C2 2 2 2 2.125 4.625 C2.08375 5.40875 2.0425 6.1925 2 7 C0.68 7 -0.64 7 -2 7 C-1.125 2.25 -1.125 2.25 0 0 Z " fill="#4F7AEA" transform="translate(82,283)"/>
<path d="M0 0 C2.31 0.33 4.62 0.66 7 1 C7 1.99 7 2.98 7 4 C7.66 4.33 8.32 4.66 9 5 C4.68607774 4.5206753 2.83430453 3.2542015 0 0 Z " fill="#6F68A5" transform="translate(216,267)"/>
<path d="M0 0 C2.5654594 2.5654594 2.54046087 4.47686668 3 8 C2.01 8.66 1.02 9.32 0 10 C-0.74926071 6.33694766 -1.2380014 3.57644848 0 0 Z " fill="#352D77" transform="translate(379,249)"/>
<path d="M0 0 C1.98 0.99 1.98 0.99 4 2 C4 3.32 4 4.64 4 6 C3.01 6 2.02 6 1 6 C0.4465236 3.92446352 0 2.15634036 0 0 Z " fill="#4B4192" transform="translate(370,238)"/>
<path d="M0 0 C0.99 0.33 1.98 0.66 3 1 C2.67 1.99 2.34 2.98 2 4 C0.35 4.33 -1.3 4.66 -3 5 C-1.125 1.125 -1.125 1.125 0 0 Z " fill="#5689EB" transform="translate(75,247)"/>
<path d="M0 0 C1.45792884 -0.05399736 2.91642712 -0.09279177 4.375 -0.125 C5.18710938 -0.14820313 5.99921875 -0.17140625 6.8359375 -0.1953125 C9 0 9 0 11 2 C5.04296875 3.07421875 5.04296875 3.07421875 3 3 C1.23828125 1.51953125 1.23828125 1.51953125 0 0 Z " fill="#387BDF" transform="translate(123,241)"/>
<path d="M0 0 C2.475 0.99 2.475 0.99 5 2 C4.67 2.99 4.34 3.98 4 5 C3.34 5 2.68 5 2 5 C1.67 6.32 1.34 7.64 1 9 C0.67 6.03 0.34 3.06 0 0 Z " fill="#3C338D" transform="translate(355,239)"/>
<path d="M0 0 C2.64 0 5.28 0 8 0 C8 0.66 8 1.32 8 2 C6.02 2 4.04 2 2 2 C2 2.66 2 3.32 2 4 C1.01 3.67 0.02 3.34 -1 3 C-0.67 2.01 -0.34 1.02 0 0 Z " fill="#59529A" transform="translate(453,263)"/>
<path d="M0 0 C2.64 0 5.28 0 8 0 C8 0.66 8 1.32 8 2 C6.35 2 4.7 2 3 2 C3 2.66 3 3.32 3 4 C2.01 4 1.02 4 0 4 C0 2.68 0 1.36 0 0 Z " fill="#645CAA" transform="translate(225,263)"/>
<path d="M0 0 C1.32 1.65 2.64 3.3 4 5 C2.02 5 0.04 5 -2 5 C-2.33 4.34 -2.66 3.68 -3 3 C-2.01 2.01 -1.02 1.02 0 0 Z " fill="#534D9B" transform="translate(319,258)"/>
<path d="M0 0 C0.66 0 1.32 0 2 0 C2 3.3 2 6.6 2 10 C1.34 10 0.68 10 0 10 C-1.2380014 6.42355152 -0.74926071 3.66305234 0 0 Z " fill="#291F79" transform="translate(386,251)"/>
<path d="M0 0 C0.66 0 1.32 0 2 0 C2 0.66 2 1.32 2 2 C3.32 2.66 4.64 3.32 6 4 C6 4.99 6 5.98 6 7 C5.34 6.67 4.68 6.34 4 6 C4 5.34 4 4.68 4 4 C1.525 3.01 1.525 3.01 -1 2 C-0.67 1.34 -0.34 0.68 0 0 Z " fill="#403787" transform="translate(201,246)"/>
<path d="M0 0 C0.66 0 1.32 0 2 0 C2.66 1.32 3.32 2.64 4 4 C2.02 4.66 0.04 5.32 -2 6 C-1.34 4.02 -0.68 2.04 0 0 Z " fill="#5288EE" transform="translate(56,227)"/>
<path d="M0 0 C2.475 0.495 2.475 0.495 5 1 C5 2.32 5 3.64 5 5 C3.0625 4.1875 3.0625 4.1875 1 3 C0.67 2.01 0.34 1.02 0 0 Z " fill="#3B318B" transform="translate(199,226)"/>
<path d="M0 0 C0.99 0 1.98 0 3 0 C1.63016497 3.16115776 1.0109362 3.9927092 -2 6 C-1.125 1.125 -1.125 1.125 0 0 Z " fill="#73AAEC" transform="translate(104,205)"/>
<path d="M0 0 C0.66 0.99 1.32 1.98 2 3 C-0.375 4.5625 -0.375 4.5625 -3 6 C-3.66 5.67 -4.32 5.34 -5 5 C-3.35 3.35 -1.7 1.7 0 0 Z " fill="#5C9EEE" transform="translate(128,191)"/>
</svg>
